<svg width="40" height="40" viewBox="0 0 40 40" fill="none" xmlns="http://www.w3.org/2000/svg">
<path d="M23.8279 20C23.8279 22.1143 22.114 23.8281 19.9998 23.8281C17.8855 23.8281 16.1716 22.1143 16.1716 20C16.1716 17.8857 17.8855 16.1719 19.9998 16.1719C22.114 16.1719 23.8279 17.8857 23.8279 20Z" fill="#16354D"/>
<path d="M28.9529 13.2264C28.7689 12.7277 28.4753 12.2764 28.0938 11.9059C27.7233 11.5244 27.2723 11.2308 26.7733 11.0468C26.3687 10.8896 25.7608 10.7026 24.6411 10.6516C23.4298 10.5964 23.0667 10.5845 20.0003 10.5845C16.9335 10.5845 16.5704 10.5961 15.3595 10.6513C14.2398 10.7026 13.6315 10.8896 13.2272 11.0468C12.7282 11.2308 12.2769 11.5244 11.9067 11.9059C11.5252 12.2764 11.2316 12.7274 11.0473 13.2264C10.8902 13.631 10.7031 14.2393 10.6521 15.3589C10.5969 16.5699 10.585 16.933 10.585 19.9998C10.585 23.0662 10.5969 23.4293 10.6521 24.6406C10.7031 25.7603 10.8902 26.3682 11.0473 26.7728C11.2316 27.2718 11.5249 27.7228 11.9064 28.0933C12.2769 28.4748 12.7279 28.7684 13.2269 28.9524C13.6315 29.1099 14.2398 29.2969 15.3595 29.3479C16.5704 29.4031 16.9332 29.4147 20 29.4147C23.067 29.4147 23.4301 29.4031 24.6408 29.3479C25.7605 29.2969 26.3687 29.1099 26.7733 28.9524C27.7749 28.566 28.5665 27.7744 28.9529 26.7728C29.1101 26.3682 29.2971 25.7603 29.3484 24.6406C29.4036 23.4293 29.4152 23.0662 29.4152 19.9998C29.4152 16.933 29.4036 16.5699 29.3484 15.3589C29.2974 14.2393 29.1104 13.631 28.9529 13.2264ZM20.0003 25.8967C16.7431 25.8967 14.1027 23.2566 14.1027 19.9995C14.1027 16.7423 16.7431 14.1022 20.0003 14.1022C23.2571 14.1022 25.8975 16.7423 25.8975 19.9995C25.8975 23.2566 23.2571 25.8967 20.0003 25.8967ZM26.1306 15.2473C25.3695 15.2473 24.7525 14.6302 24.7525 13.8691C24.7525 13.108 25.3695 12.4909 26.1306 12.4909C26.8917 12.4909 27.5088 13.108 27.5088 13.8691C27.5085 14.6302 26.8917 15.2473 26.1306 15.2473Z" fill="#16354D"/>
<path d="M20 0C8.95599 0 0 8.95599 0 20C0 31.044 8.95599 40 20 40C31.044 40 40 31.044 40 20C40 8.95599 31.044 0 20 0ZM31.4151 24.7348C31.3596 25.9573 31.1652 26.792 30.8813 27.5226C30.2847 29.0652 29.0652 30.2847 27.5226 30.8813C26.7923 31.1652 25.9573 31.3593 24.7351 31.4151C23.5104 31.4709 23.1192 31.4844 20.0003 31.4844C16.8811 31.4844 16.4902 31.4709 15.2652 31.4151C14.043 31.3593 13.208 31.1652 12.4777 30.8813C11.7111 30.593 11.0171 30.141 10.4434 29.5566C9.85931 28.9832 9.40735 28.2889 9.11896 27.5226C8.83514 26.7923 8.64075 25.9573 8.5852 24.7351C8.52875 23.5101 8.51562 23.1189 8.51562 20C8.51562 16.8811 8.52875 16.4899 8.5849 15.2652C8.64044 14.0427 8.83453 13.208 9.11835 12.4774C9.40674 11.7111 9.85901 11.0168 10.4434 10.4434C11.0168 9.85901 11.7111 9.40704 12.4774 9.11865C13.208 8.83484 14.0427 8.64075 15.2652 8.5849C16.4899 8.52905 16.8811 8.51562 20 8.51562C23.1189 8.51562 23.5101 8.52905 24.7348 8.58521C25.9573 8.64075 26.792 8.83484 27.5226 9.11835C28.2889 9.40674 28.9832 9.85901 29.5569 10.4434C30.141 11.0172 30.5933 11.7111 30.8813 12.4774C31.1655 13.208 31.3596 14.0427 31.4154 15.2652C31.4712 16.4899 31.4844 16.8811 31.4844 20C31.4844 23.1189 31.4712 23.5101 31.4151 24.7348Z" fill="#16354D"/>
</svg>
