<svg width="90" height="91" viewBox="0 0 90 91" fill="none" xmlns="http://www.w3.org/2000/svg">
<ellipse cx="44.3988" cy="45.2681" rx="20.7237" ry="20.8114" fill="#16354D"/>
<mask id="path-2-inside-1_47_270" fill="white">
<path d="M45.7418 2.30103V4.60984L45.9117 4.65649C46.0122 4.67981 46.3213 4.70313 46.5994 4.70313C47.2948 4.70313 49.4351 4.91302 50.6868 5.09959C55.1142 5.76814 59.6265 7.27625 63.6753 9.45292C74.3072 15.1589 81.9875 25.5136 84.3364 37.3142C84.6223 38.7757 84.8695 40.3771 84.8231 40.5636C84.8077 40.6491 84.6454 40.5636 84.2282 40.2216C83.9191 39.9728 83.6332 39.7785 83.6023 39.8018C83.5714 39.8173 83.4633 39.7396 83.3628 39.623L83.1774 39.4131L83.4092 39.6074L83.641 39.8018L83.4092 39.5453C83.2855 39.4053 83.1387 39.312 83.0924 39.3276C83.0383 39.3509 82.9224 39.2732 82.8219 39.1566L82.6365 38.9467L82.8374 39.1022C82.9456 39.1877 82.9147 39.141 82.7756 39.0011C82.6288 38.8612 82.4897 38.7679 82.4511 38.7834C82.4124 38.8067 82.3197 38.7523 82.2424 38.6513L82.0956 38.4802L82.2888 38.628C82.397 38.7135 82.3506 38.6435 82.1884 38.488C82.0261 38.3325 81.8716 38.2237 81.8329 38.2393C81.7943 38.2626 81.7016 38.2082 81.6243 38.1071C81.4775 37.9361 81.4775 37.9361 81.6398 38.0527C81.7248 38.1149 81.6939 38.0682 81.578 37.9516C81.4543 37.835 81.323 37.7573 81.2921 37.7728C81.2534 37.7962 81.1607 37.7417 81.0834 37.6407L80.9366 37.4697L81.1298 37.6251C81.2921 37.7495 81.2843 37.734 81.0912 37.5241C80.9675 37.3841 80.8207 37.2909 80.7744 37.3064C80.7203 37.3297 80.6044 37.252 80.504 37.1354L80.3185 36.9255L80.5194 37.081C80.6276 37.1665 80.5967 37.1198 80.4576 36.9799C80.3108 36.84 80.1717 36.7389 80.1331 36.7622C80.1022 36.7856 79.9863 36.7078 79.8858 36.5912L79.7004 36.3813L79.9013 36.5368C80.0094 36.6223 79.9785 36.5757 79.8395 36.4357C79.6927 36.2958 79.5536 36.1948 79.5149 36.2181C79.484 36.2414 79.3681 36.1637 79.2677 36.0471L79.0822 35.8372L79.2754 35.9926C79.4377 36.117 79.4377 36.1092 79.2522 35.9304C79.1363 35.8138 79.005 35.7361 78.9741 35.7516C78.9354 35.775 78.8427 35.7206 78.7655 35.6195L78.6186 35.4485L78.8118 35.6039C78.9741 35.7283 78.9663 35.7128 78.7732 35.5029C78.6496 35.363 78.5027 35.2697 78.4409 35.293C78.3868 35.3085 78.3559 35.3008 78.3791 35.2619C78.4023 35.2308 78.3482 35.1297 78.2478 35.052C78.0855 34.9043 78.0855 34.9043 78.1937 35.0598C78.3019 35.1997 78.3019 35.2075 78.1782 35.1064C78.101 35.052 78.0546 34.9743 78.0778 34.9432C78.1319 34.8577 77.9078 34.6866 77.8228 34.7411C77.7842 34.7644 77.6683 34.6866 77.5678 34.57L77.3824 34.3601L77.5833 34.5156C77.6915 34.6011 77.6605 34.5545 77.5215 34.4146C77.3747 34.2746 77.2356 34.1736 77.1969 34.1969C77.166 34.2202 77.0501 34.1425 76.9497 34.0259L76.7643 33.816L76.9961 34.0103L77.2279 34.2047L76.9961 33.9481C76.8724 33.8082 76.7256 33.7149 76.6793 33.7305C76.6252 33.7538 76.5093 33.676 76.4088 33.5594L76.2234 33.3495L76.4552 33.5439L76.687 33.7382L76.4552 33.4817C76.3316 33.3418 76.1848 33.2485 76.1229 33.2718C76.0689 33.2874 76.0379 33.2796 76.0611 33.2407C76.1152 33.1552 75.5048 32.5877 75.4198 32.6421C75.3889 32.6655 75.273 32.5877 75.1726 32.4711L74.9871 32.2612L75.2189 32.4556L75.4507 32.6499L75.2189 32.3934C75.0953 32.2534 74.9485 32.1602 74.9021 32.1757C74.848 32.199 74.7476 32.1368 74.6626 32.0436C74.5235 31.8725 74.5235 31.8725 74.6858 31.9891C74.7708 32.0513 74.709 31.9736 74.539 31.8181C74.3149 31.6004 74.2067 31.546 74.1063 31.5927C73.9981 31.6549 70.6525 34.9509 65.7847 39.7862C64.6566 40.9057 64.3707 41.1544 64.3398 41.0378C64.3166 40.9523 64.1698 40.4548 64.023 39.9184C63.5517 38.2393 62.4545 35.6506 62.2691 35.7672C62.215 35.7983 62.1995 35.7905 62.2227 35.7361C62.3 35.6195 62.1995 35.4018 62.0991 35.464C62.0527 35.4873 62.045 35.4718 62.0759 35.4251C62.1454 35.3085 61.9368 34.9976 61.8518 35.0831C61.8132 35.1142 61.8132 35.0987 61.8441 35.0442C61.8982 34.9354 61.5968 34.3835 61.5041 34.4379C61.4732 34.4612 61.45 34.4146 61.4578 34.3368C61.4578 34.2669 61.4269 34.2124 61.3805 34.2202C61.3264 34.228 61.2955 34.1813 61.3032 34.1036C61.3032 34.0336 61.2723 33.9792 61.226 33.987C61.1719 33.9948 61.141 33.9481 61.1487 33.8704C61.1487 33.8004 61.1023 33.7382 61.0405 33.7382C60.9787 33.7382 60.9246 33.6683 60.9246 33.5828C60.9246 33.4972 60.8783 33.4351 60.8242 33.4506C60.7624 33.4584 60.7392 33.4351 60.7624 33.3962C60.7855 33.3573 60.7469 33.264 60.6696 33.1785C60.6001 33.1008 60.5692 33.0852 60.6156 33.1552C60.6851 33.2563 60.6774 33.2563 60.5615 33.1708C60.4919 33.1086 60.4456 33.023 60.4688 32.9686C60.4919 32.9142 60.4224 32.8054 60.3297 32.7199C60.152 32.5722 60.152 32.5722 60.2679 32.7276C60.376 32.8676 60.376 32.8753 60.2524 32.7821C60.1829 32.7199 60.1365 32.6344 60.1597 32.5799C60.1751 32.5333 60.0824 32.3856 59.9433 32.2612L59.6884 32.028L59.8815 32.2612L60.0747 32.4944L59.8661 32.3079C59.7502 32.2068 59.6729 32.0902 59.6961 32.0358C59.7424 31.9269 57.9885 30.1701 57.8958 30.2245C57.8494 30.2556 57.7335 30.1778 57.6331 30.0612L57.4476 29.8513L57.6794 30.0457L57.9112 30.2323L57.6717 29.9835C57.5403 29.8358 57.3704 29.7114 57.2854 29.7036C57.2081 29.6881 57.1386 29.6337 57.1386 29.5715C57.1386 29.5093 57.069 29.4627 56.984 29.4627C56.899 29.4627 56.8295 29.4082 56.8295 29.346C56.8295 29.2839 56.76 29.2294 56.675 29.2294C56.59 29.2294 56.5204 29.175 56.5204 29.1128C56.5204 29.0506 56.4586 28.9962 56.3891 28.9962C56.3195 28.9962 56.2345 28.9651 56.1959 28.9263C56.1573 28.8874 56.1805 28.8796 56.25 28.9107C56.3118 28.9418 56.2964 28.9185 56.2191 28.8485C56.1418 28.7863 56.0414 28.7475 56.0027 28.7708C55.9641 28.7941 55.9487 28.7708 55.9564 28.7086C55.9718 28.6542 55.9178 28.6153 55.8482 28.6153C55.7709 28.6231 55.7323 28.5998 55.7555 28.5609C55.7941 28.4987 55.686 28.4598 55.5391 28.4832C55.5005 28.4832 55.4851 28.4443 55.5005 28.3899C55.5082 28.3432 55.4542 28.3044 55.3846 28.3044C55.3073 28.3121 55.2687 28.281 55.2996 28.2344C55.3305 28.1878 55.2996 28.1722 55.2224 28.2033C55.1451 28.2344 55.0987 28.2188 55.1142 28.1567C55.1219 28.1022 55.0678 28.0711 54.9983 28.0711C54.921 28.0789 54.8747 28.0634 54.8978 28.0323C54.9442 27.9468 54.4806 27.698 54.3801 27.7602C54.3261 27.7991 54.3183 27.7835 54.357 27.7135C54.4033 27.6358 54.3879 27.6203 54.2874 27.6591C54.2179 27.6902 54.1715 27.6825 54.1947 27.6436C54.2565 27.5425 52.9584 26.9128 52.8425 26.9828C52.7885 27.0139 52.773 27.0061 52.8039 26.9517C52.8889 26.8196 50.9032 26.0888 49.3965 25.7001C48.7088 25.5213 47.148 25.2648 46.2981 25.1871L45.7418 25.1327V27.527V29.9291L44.9459 29.1284C44.5055 28.693 44.1346 28.351 44.1114 28.3665C44.0883 28.3899 43.3774 27.698 42.5352 26.8351L40.9899 25.2648L42.5738 26.8196L44.1578 28.3743L42.5816 26.7651C41.7084 25.8789 40.9744 25.1715 40.9358 25.1948C40.8971 25.2182 40.8817 25.1948 40.8894 25.1327C40.9049 25.0782 40.8662 25.0394 40.8122 25.0549C40.7658 25.0627 40.7272 25.0238 40.7349 24.9772C40.7503 24.9228 40.7117 24.8839 40.6576 24.8994C40.5958 24.9072 40.5726 24.8917 40.5958 24.8528C40.6499 24.7595 39.5682 23.5779 39.4754 23.6401C39.4368 23.6634 39.4136 23.6401 39.4214 23.5779C39.4368 23.5235 39.3982 23.4846 39.3441 23.5002C39.2823 23.5079 39.2591 23.4924 39.2823 23.4535C39.3055 23.4224 38.4092 22.4818 37.2965 21.3701L35.2721 19.3567L37.2424 21.3779L39.2127 23.3991L37.227 21.4246C36.1375 20.3362 35.2644 19.4111 35.2799 19.38C35.334 19.3023 33.92 17.8331 33.8427 17.8797C33.8195 17.8953 33.4487 17.561 33.0237 17.1334C32.6065 16.7136 32.2897 16.3638 32.3283 16.3638C32.3592 16.3638 32.2974 16.255 32.1815 16.1228C31.9806 15.8818 31.9806 15.8741 32.1274 15.7108C32.2047 15.6253 35.1331 12.2282 38.6332 8.17024C42.1334 4.12009 45.1623 0.621887 45.3632 0.396446L45.734 -1.52588e-05L45.7418 2.30103ZM32.3747 16.3871C32.3747 16.3949 32.7146 16.737 33.1241 17.1412L33.8814 17.8797L33.1473 17.1179C32.4674 16.4182 32.3747 16.3249 32.3747 16.3871Z"/>
</mask>
<path d="M45.7418 2.30103V4.60984L45.9117 4.65649C46.0122 4.67981 46.3213 4.70313 46.5994 4.70313C47.2948 4.70313 49.4351 4.91302 50.6868 5.09959C55.1142 5.76814 59.6265 7.27625 63.6753 9.45292C74.3072 15.1589 81.9875 25.5136 84.3364 37.3142C84.6223 38.7757 84.8695 40.3771 84.8231 40.5636C84.8077 40.6491 84.6454 40.5636 84.2282 40.2216C83.9191 39.9728 83.6332 39.7785 83.6023 39.8018C83.5714 39.8173 83.4633 39.7396 83.3628 39.623L83.1774 39.4131L83.4092 39.6074L83.641 39.8018L83.4092 39.5453C83.2855 39.4053 83.1387 39.312 83.0924 39.3276C83.0383 39.3509 82.9224 39.2732 82.8219 39.1566L82.6365 38.9467L82.8374 39.1022C82.9456 39.1877 82.9147 39.141 82.7756 39.0011C82.6288 38.8612 82.4897 38.7679 82.4511 38.7834C82.4124 38.8067 82.3197 38.7523 82.2424 38.6513L82.0956 38.4802L82.2888 38.628C82.397 38.7135 82.3506 38.6435 82.1884 38.488C82.0261 38.3325 81.8716 38.2237 81.8329 38.2393C81.7943 38.2626 81.7016 38.2082 81.6243 38.1071C81.4775 37.9361 81.4775 37.9361 81.6398 38.0527C81.7248 38.1149 81.6939 38.0682 81.578 37.9516C81.4543 37.835 81.323 37.7573 81.2921 37.7728C81.2534 37.7962 81.1607 37.7417 81.0834 37.6407L80.9366 37.4697L81.1298 37.6251C81.2921 37.7495 81.2843 37.734 81.0912 37.5241C80.9675 37.3841 80.8207 37.2909 80.7744 37.3064C80.7203 37.3297 80.6044 37.252 80.504 37.1354L80.3185 36.9255L80.5194 37.081C80.6276 37.1665 80.5967 37.1198 80.4576 36.9799C80.3108 36.84 80.1717 36.7389 80.1331 36.7622C80.1022 36.7856 79.9863 36.7078 79.8858 36.5912L79.7004 36.3813L79.9013 36.5368C80.0094 36.6223 79.9785 36.5757 79.8395 36.4357C79.6927 36.2958 79.5536 36.1948 79.5149 36.2181C79.484 36.2414 79.3681 36.1637 79.2677 36.0471L79.0822 35.8372L79.2754 35.9926C79.4377 36.117 79.4377 36.1092 79.2522 35.9304C79.1363 35.8138 79.005 35.7361 78.9741 35.7516C78.9354 35.775 78.8427 35.7206 78.7655 35.6195L78.6186 35.4485L78.8118 35.6039C78.9741 35.7283 78.9663 35.7128 78.7732 35.5029C78.6496 35.363 78.5027 35.2697 78.4409 35.293C78.3868 35.3085 78.3559 35.3008 78.3791 35.2619C78.4023 35.2308 78.3482 35.1297 78.2478 35.052C78.0855 34.9043 78.0855 34.9043 78.1937 35.0598C78.3019 35.1997 78.3019 35.2075 78.1782 35.1064C78.101 35.052 78.0546 34.9743 78.0778 34.9432C78.1319 34.8577 77.9078 34.6866 77.8228 34.7411C77.7842 34.7644 77.6683 34.6866 77.5678 34.57L77.3824 34.3601L77.5833 34.5156C77.6915 34.6011 77.6605 34.5545 77.5215 34.4146C77.3747 34.2746 77.2356 34.1736 77.1969 34.1969C77.166 34.2202 77.0501 34.1425 76.9497 34.0259L76.7643 33.816L76.9961 34.0103L77.2279 34.2047L76.9961 33.9481C76.8724 33.8082 76.7256 33.7149 76.6793 33.7305C76.6252 33.7538 76.5093 33.676 76.4088 33.5594L76.2234 33.3495L76.4552 33.5439L76.687 33.7382L76.4552 33.4817C76.3316 33.3418 76.1848 33.2485 76.1229 33.2718C76.0689 33.2874 76.0379 33.2796 76.0611 33.2407C76.1152 33.1552 75.5048 32.5877 75.4198 32.6421C75.3889 32.6655 75.273 32.5877 75.1726 32.4711L74.9871 32.2612L75.2189 32.4556L75.4507 32.6499L75.2189 32.3934C75.0953 32.2534 74.9485 32.1602 74.9021 32.1757C74.848 32.199 74.7476 32.1368 74.6626 32.0436C74.5235 31.8725 74.5235 31.8725 74.6858 31.9891C74.7708 32.0513 74.709 31.9736 74.539 31.8181C74.3149 31.6004 74.2067 31.546 74.1063 31.5927C73.9981 31.6549 70.6525 34.9509 65.7847 39.7862C64.6566 40.9057 64.3707 41.1544 64.3398 41.0378C64.3166 40.9523 64.1698 40.4548 64.023 39.9184C63.5517 38.2393 62.4545 35.6506 62.2691 35.7672C62.215 35.7983 62.1995 35.7905 62.2227 35.7361C62.3 35.6195 62.1995 35.4018 62.0991 35.464C62.0527 35.4873 62.045 35.4718 62.0759 35.4251C62.1454 35.3085 61.9368 34.9976 61.8518 35.0831C61.8132 35.1142 61.8132 35.0987 61.8441 35.0442C61.8982 34.9354 61.5968 34.3835 61.5041 34.4379C61.4732 34.4612 61.45 34.4146 61.4578 34.3368C61.4578 34.2669 61.4269 34.2124 61.3805 34.2202C61.3264 34.228 61.2955 34.1813 61.3032 34.1036C61.3032 34.0336 61.2723 33.9792 61.226 33.987C61.1719 33.9948 61.141 33.9481 61.1487 33.8704C61.1487 33.8004 61.1023 33.7382 61.0405 33.7382C60.9787 33.7382 60.9246 33.6683 60.9246 33.5828C60.9246 33.4972 60.8783 33.4351 60.8242 33.4506C60.7624 33.4584 60.7392 33.4351 60.7624 33.3962C60.7855 33.3573 60.7469 33.264 60.6696 33.1785C60.6001 33.1008 60.5692 33.0852 60.6156 33.1552C60.6851 33.2563 60.6774 33.2563 60.5615 33.1708C60.4919 33.1086 60.4456 33.023 60.4688 32.9686C60.4919 32.9142 60.4224 32.8054 60.3297 32.7199C60.152 32.5722 60.152 32.5722 60.2679 32.7276C60.376 32.8676 60.376 32.8753 60.2524 32.7821C60.1829 32.7199 60.1365 32.6344 60.1597 32.5799C60.1751 32.5333 60.0824 32.3856 59.9433 32.2612L59.6884 32.028L59.8815 32.2612L60.0747 32.4944L59.8661 32.3079C59.7502 32.2068 59.6729 32.0902 59.6961 32.0358C59.7424 31.9269 57.9885 30.1701 57.8958 30.2245C57.8494 30.2556 57.7335 30.1778 57.6331 30.0612L57.4476 29.8513L57.6794 30.0457L57.9112 30.2323L57.6717 29.9835C57.5403 29.8358 57.3704 29.7114 57.2854 29.7036C57.2081 29.6881 57.1386 29.6337 57.1386 29.5715C57.1386 29.5093 57.069 29.4627 56.984 29.4627C56.899 29.4627 56.8295 29.4082 56.8295 29.346C56.8295 29.2839 56.76 29.2294 56.675 29.2294C56.59 29.2294 56.5204 29.175 56.5204 29.1128C56.5204 29.0506 56.4586 28.9962 56.3891 28.9962C56.3195 28.9962 56.2345 28.9651 56.1959 28.9263C56.1573 28.8874 56.1805 28.8796 56.25 28.9107C56.3118 28.9418 56.2964 28.9185 56.2191 28.8485C56.1418 28.7863 56.0414 28.7475 56.0027 28.7708C55.9641 28.7941 55.9487 28.7708 55.9564 28.7086C55.9718 28.6542 55.9178 28.6153 55.8482 28.6153C55.7709 28.6231 55.7323 28.5998 55.7555 28.5609C55.7941 28.4987 55.686 28.4598 55.5391 28.4832C55.5005 28.4832 55.4851 28.4443 55.5005 28.3899C55.5082 28.3432 55.4542 28.3044 55.3846 28.3044C55.3073 28.3121 55.2687 28.281 55.2996 28.2344C55.3305 28.1878 55.2996 28.1722 55.2224 28.2033C55.1451 28.2344 55.0987 28.2188 55.1142 28.1567C55.1219 28.1022 55.0678 28.0711 54.9983 28.0711C54.921 28.0789 54.8747 28.0634 54.8978 28.0323C54.9442 27.9468 54.4806 27.698 54.3801 27.7602C54.3261 27.7991 54.3183 27.7835 54.357 27.7135C54.4033 27.6358 54.3879 27.6203 54.2874 27.6591C54.2179 27.6902 54.1715 27.6825 54.1947 27.6436C54.2565 27.5425 52.9584 26.9128 52.8425 26.9828C52.7885 27.0139 52.773 27.0061 52.8039 26.9517C52.8889 26.8196 50.9032 26.0888 49.3965 25.7001C48.7088 25.5213 47.148 25.2648 46.2981 25.1871L45.7418 25.1327V27.527V29.9291L44.9459 29.1284C44.5055 28.693 44.1346 28.351 44.1114 28.3665C44.0883 28.3899 43.3774 27.698 42.5352 26.8351L40.9899 25.2648L42.5738 26.8196L44.1578 28.3743L42.5816 26.7651C41.7084 25.8789 40.9744 25.1715 40.9358 25.1948C40.8971 25.2182 40.8817 25.1948 40.8894 25.1327C40.9049 25.0782 40.8662 25.0394 40.8122 25.0549C40.7658 25.0627 40.7272 25.0238 40.7349 24.9772C40.7503 24.9228 40.7117 24.8839 40.6576 24.8994C40.5958 24.9072 40.5726 24.8917 40.5958 24.8528C40.6499 24.7595 39.5682 23.5779 39.4754 23.6401C39.4368 23.6634 39.4136 23.6401 39.4214 23.5779C39.4368 23.5235 39.3982 23.4846 39.3441 23.5002C39.2823 23.5079 39.2591 23.4924 39.2823 23.4535C39.3055 23.4224 38.4092 22.4818 37.2965 21.3701L35.2721 19.3567L37.2424 21.3779L39.2127 23.3991L37.227 21.4246C36.1375 20.3362 35.2644 19.4111 35.2799 19.38C35.334 19.3023 33.92 17.8331 33.8427 17.8797C33.8195 17.8953 33.4487 17.561 33.0237 17.1334C32.6065 16.7136 32.2897 16.3638 32.3283 16.3638C32.3592 16.3638 32.2974 16.255 32.1815 16.1228C31.9806 15.8818 31.9806 15.8741 32.1274 15.7108C32.2047 15.6253 35.1331 12.2282 38.6332 8.17024C42.1334 4.12009 45.1623 0.621887 45.3632 0.396446L45.734 -1.52588e-05L45.7418 2.30103ZM32.3747 16.3871C32.3747 16.3949 32.7146 16.737 33.1241 17.1412L33.8814 17.8797L33.1473 17.1179C32.4674 16.4182 32.3747 16.3249 32.3747 16.3871Z" fill="#99D0D3" stroke="#16354D" stroke-width="2" mask="url(#path-2-inside-1_47_270)"/>
<path d="M38.2232 23.9776C38.7494 24.52 39.1405 24.9255 39.4173 25.2154C39.1989 25.2792 38.9448 25.3572 38.68 25.4413C38.0099 25.6539 37.2484 25.9129 36.8022 26.0908L36.802 26.0909C31.1141 28.3625 26.6509 33.1653 24.7515 39.0735L24.7513 39.0743C24.4593 39.9872 24.0569 41.6802 23.9589 42.475C23.9588 42.4757 23.9587 42.4764 23.9586 42.4772L23.905 42.8851L23.8308 43.4502H24.4008H26.9969C27.5387 43.4502 28.0413 43.4536 28.4556 43.4598C28.1634 43.7538 27.7992 44.1188 27.3807 44.5373C26.257 45.6612 24.7435 47.1692 23.1848 48.7184C20.0661 51.8183 16.7757 55.0744 16.06 55.7559C16.0596 55.7562 16.0593 55.7565 16.0589 55.7569L15.6631 56.1297L15.5645 56.0444C15.5645 56.0444 15.5644 56.0443 15.5643 56.0443C13.1372 53.9397 2.7527 44.8634 1.16 43.4566C1.41721 43.4526 1.70515 43.4502 2.00893 43.4502H4.01786H4.51786V42.9502V42.5407C4.52568 41.7388 4.85012 39.245 5.17269 37.6064C5.91307 33.905 7.12628 30.4272 8.86719 27.024C12.7442 19.4453 18.9722 13.2487 26.5496 9.43308L26.5497 9.43299C30.4961 7.44395 34.4545 6.19306 38.8828 5.54777C39.0568 5.5225 39.2124 5.50011 39.3513 5.48045C39.1781 5.68294 38.978 5.91638 38.7551 6.17619C37.9374 7.12904 36.8134 8.43472 35.581 9.86507C33.1243 12.7075 31.0103 15.1603 30.8711 15.3274C30.8705 15.3282 30.8698 15.329 30.8692 15.3297L30.6557 15.5828L30.3624 15.9306L30.6811 16.2554L31.8781 17.4752C31.8782 17.4753 31.8783 17.4754 31.8784 17.4755C34.9419 20.6083 36.9655 22.6812 38.2232 23.9776Z" fill="#99D0D3" stroke="#16354D"/>
<path d="M58.8771 31.1884L59.6111 31.9503L58.8539 31.2117C58.1585 30.5277 58.0658 30.4344 58.1276 30.4344C58.1353 30.4344 58.4753 30.7764 58.8771 31.1884Z" fill="#99D0D3"/>
<path d="M78.8769 37.131L78.8769 37.131C81.5735 39.4865 85.1121 42.5802 86.7267 43.9948L86.7271 43.9952L88.7546 45.7674C88.2551 45.7817 87.538 45.7929 86.8862 45.7929H85.1631H84.686L84.6637 46.2695L84.6175 47.2522C84.6175 47.253 84.6175 47.2537 84.6174 47.2545C84.5869 47.7988 84.5103 48.7775 84.449 49.4332C83.3042 61.4794 76.7255 72.4528 66.5973 79.1873L66.5972 79.1873C61.3706 82.6648 55.4264 84.8455 49.1213 85.5982C49.3045 85.368 49.5527 85.0703 49.88 84.6865C50.2789 84.2187 50.7833 83.6367 51.4118 82.9116C51.7616 82.5081 52.1497 82.0602 52.5795 81.5631L52.5799 81.5626C52.9477 81.1361 53.3113 80.7144 53.664 80.3054C55.5331 78.1381 57.0965 76.3251 57.3533 76.0128C57.3539 76.0121 57.3544 76.0114 57.355 76.0107L57.8926 75.3694L58.1852 75.0204L57.865 74.6966L56.3351 73.1496L56.3342 73.1487C55.911 72.7229 55.5169 72.3362 55.2221 72.0574C55.0755 71.9187 54.9491 71.8027 54.8544 71.721C54.8299 71.6999 54.805 71.6789 54.7807 71.6593C54.7599 71.6165 54.733 71.5753 54.6995 71.5367C54.6672 71.4996 54.6312 71.4679 54.5926 71.4416C54.5665 71.4028 54.535 71.3666 54.4981 71.334C54.4705 71.3097 54.4415 71.2889 54.4115 71.2712C54.3704 71.2094 54.3195 71.1423 54.2676 71.0772C54.1475 70.9268 53.9863 70.743 53.8242 70.5685C53.6624 70.3941 53.4912 70.2197 53.3501 70.0896C53.2815 70.0264 53.2087 69.9631 53.1419 69.9148C53.1405 69.9138 53.1391 69.9128 53.1376 69.9117C53.1152 69.8739 53.0873 69.8374 53.0533 69.8031C53.0071 69.7566 52.9567 69.7215 52.9045 69.6959C52.8796 69.6655 52.8518 69.633 52.8228 69.5999C52.7301 69.4942 52.5974 69.3509 52.4371 69.1823C52.1152 68.8437 51.6676 68.3876 51.1714 67.8922L51.1705 67.8913L49.4527 66.1854C49.4218 66.1293 49.3836 66.0734 49.3474 66.0241C49.3082 65.9707 49.2618 65.9123 49.2102 65.8515C49.2974 65.8304 49.3886 65.8085 49.4816 65.7862C53.1141 64.9243 56.5263 62.9872 59.2322 60.2568L59.2325 60.2564C62.5021 56.951 64.4651 52.9174 65.1286 48.1892L65.1291 48.1854C65.1916 47.714 65.2493 47.0888 65.2493 46.7827V46.2929V45.7929H64.7493H62.5472C62.158 45.7929 61.7927 45.7897 61.4769 45.7843C61.8376 45.4211 62.3093 44.9486 62.8593 44.3994C64.1557 43.1049 65.8853 41.3859 67.6173 39.6691C69.3493 37.9523 71.0832 36.2381 72.3884 34.9533C73.041 34.3108 73.586 33.7762 73.9696 33.4024C74.0802 33.2947 74.177 33.2007 74.259 33.1215C74.2792 33.1387 74.3002 33.1566 74.3221 33.1753C74.5767 33.3925 74.9421 33.7074 75.392 34.0968C76.2913 34.8755 77.525 35.9496 78.8769 37.131ZM54.4697 71.9071L54.4727 71.9018L54.4696 71.9071L54.4697 71.9071Z" fill="#99D0D3" stroke="#16354D"/>
<path d="M75.8448 33.0153L75.9916 33.1941L75.8139 33.0464C75.7212 32.9609 75.6439 32.8831 75.6439 32.8676C75.6439 32.8054 75.7057 32.852 75.8448 33.0153Z" fill="#99D0D3"/>
<mask id="path-7-inside-2_47_270" fill="white">
<path d="M8.49931 51.4392C10.9409 53.577 13.5603 55.8625 14.3098 56.5232C15.0592 57.184 15.7083 57.7204 15.7392 57.7204C15.7701 57.7204 17.7636 55.777 20.1666 53.4059C22.5618 51.0427 24.5321 49.107 24.5398 49.1148C24.5476 49.1226 24.648 49.5424 24.7639 50.0477C25.3202 52.5664 26.5333 55.2483 28.0786 57.4095C31.4166 62.0815 36.6784 65.1677 42.3189 65.7663L42.8056 65.8207V63.4808C42.8056 62.1903 42.8288 61.1409 42.8597 61.1409C42.8984 61.1409 44.7991 63.0532 47.0939 65.3931C49.3887 67.733 52.4639 70.8659 53.9243 72.3507L56.5745 75.0482L56.4045 75.2658C56.3118 75.3825 53.2212 78.9739 49.5433 83.2418L42.8443 91L42.8211 88.6756L42.8056 86.3513L42.0098 86.2969C36.8484 85.947 31.9497 84.6877 27.2442 82.4877C26.8269 82.2934 26.4483 82.1534 26.402 82.1845C26.3633 82.2078 26.3479 82.1923 26.3711 82.1534C26.4329 82.0524 26.2165 81.9513 26.0929 82.029C26.0388 82.0524 26.0234 82.0446 26.062 82.0135C26.1393 81.928 24.3544 80.9485 24.2385 81.0107C24.1844 81.0418 24.169 81.034 24.2076 81.0029C24.2849 80.9096 23.5817 80.4821 23.4658 80.5443C23.4117 80.5753 23.3963 80.5753 23.4272 80.5365C23.5122 80.451 22.9636 80.0856 22.8554 80.1556C22.8013 80.1944 22.7936 80.1789 22.8322 80.1089C22.8786 80.0312 22.8632 80.0156 22.7704 80.0545C22.7009 80.0778 22.6236 80.0623 22.5927 80.0156C22.5541 79.9612 22.5773 79.9534 22.6468 79.9845C22.7086 80.0156 22.67 79.969 22.5618 79.8835C22.4536 79.798 22.33 79.7358 22.2759 79.7591C22.2218 79.7746 22.16 79.7513 22.1291 79.7047C22.0905 79.6503 22.1137 79.6425 22.1755 79.6814C22.245 79.728 22.2605 79.7125 22.2218 79.6503C22.1832 79.5958 22.1137 79.5725 22.0519 79.5958C21.99 79.6192 21.9514 79.5958 21.9669 79.5414C21.9746 79.487 21.9205 79.4481 21.851 79.4481C21.7814 79.4481 21.6964 79.4171 21.6578 79.3782C21.6192 79.3393 21.6423 79.3315 21.7119 79.3626C21.7737 79.3937 21.7428 79.3471 21.6346 79.2616C21.5264 79.1761 21.3874 79.1139 21.3256 79.1216C21.2637 79.1294 21.2097 79.0828 21.2097 79.0206C21.2097 78.9584 21.1478 78.904 21.0783 78.904C21.0088 78.904 20.9238 78.8729 20.8851 78.834C20.8465 78.7951 20.8697 78.7874 20.9315 78.8262C21.0088 78.8729 21.0242 78.8573 20.9856 78.7951C20.9469 78.7407 20.8774 78.7174 20.8156 78.7407C20.7615 78.7641 20.692 78.7407 20.6611 78.6941C20.6224 78.6397 20.6456 78.6319 20.7151 78.6708C20.8079 78.733 20.8079 78.7174 20.7151 78.6086C20.6611 78.5308 20.5529 78.4842 20.4833 78.492C20.4215 78.5075 20.3597 78.4609 20.3597 78.3987C20.3597 78.3365 20.2902 78.2821 20.2052 78.2821C20.1202 78.2821 20.0507 78.2277 20.0507 78.1655C20.0507 78.1033 19.9888 78.0489 19.9193 78.0489C19.842 78.0489 19.7416 77.9944 19.6875 77.9323C19.6025 77.839 19.6102 77.839 19.7416 77.9323C19.8884 78.0411 19.8884 78.0411 19.7879 77.9089C19.7261 77.8312 19.6334 77.7846 19.5793 77.8079C19.5252 77.8312 19.4402 77.7846 19.3784 77.7146C19.2857 77.5902 19.2934 77.5902 19.4325 77.699C19.5871 77.8157 19.5871 77.8157 19.4402 77.6369C19.3553 77.5436 19.2471 77.4736 19.193 77.4969C19.1389 77.5202 19.0539 77.4736 18.9921 77.4036C18.8994 77.2793 18.9071 77.2793 19.0462 77.3881C19.2007 77.5047 19.2007 77.5047 19.0539 77.3259C18.9689 77.2326 18.8607 77.1627 18.8067 77.186C18.7526 77.2093 18.6676 77.1627 18.6058 77.0927C18.5131 76.9761 18.5208 76.9683 18.6599 77.0694C18.7449 77.1238 18.7139 77.0849 18.598 76.9683C18.4744 76.8595 18.3508 76.7817 18.3199 76.8051C18.2812 76.8206 18.1885 76.7662 18.1113 76.6651C17.9645 76.4941 17.9645 76.4941 18.1267 76.6107C18.2117 76.6729 18.1808 76.6263 18.0649 76.5097C17.9413 76.393 17.8099 76.3153 17.779 76.3309C17.7481 76.3542 17.6322 76.2764 17.5318 76.1598L17.3463 75.9499L17.5472 76.1054C17.6554 76.1909 17.609 76.1287 17.4468 75.9655C17.2845 75.8022 17.1223 75.6856 17.0913 75.709C17.0527 75.7323 16.7668 75.4835 16.4578 75.1726C16.141 74.8538 15.9169 74.5895 15.9555 74.5895C15.9942 74.5895 15.9246 74.4885 15.801 74.3563C15.6851 74.2319 15.5537 74.1464 15.5151 74.1697C15.4765 74.1931 15.461 74.1697 15.4688 74.1076C15.4842 74.0531 15.4456 74.0143 15.3915 74.0298C15.3297 74.0376 15.3065 74.022 15.3297 73.9832C15.3529 73.9443 15.1674 73.7266 14.9279 73.4934L14.4875 73.0736L14.8738 73.5012L15.2601 73.9288L14.8583 73.5478C14.6343 73.3379 14.472 73.1358 14.4952 73.097C14.5184 73.0659 14.387 72.8871 14.2016 72.7005C14.0161 72.5139 13.9543 72.4751 14.0625 72.6072L14.2557 72.8404L14.0084 72.615C13.8771 72.4984 13.7843 72.3507 13.7998 72.304C13.823 72.2496 13.738 72.1252 13.6221 72.0242L13.4057 71.8298L13.5603 72.0242L13.7148 72.2185L13.5448 72.0708C13.4444 71.9931 13.3903 71.8998 13.4057 71.8609C13.4289 71.8298 13.3517 71.7055 13.2435 71.5811C13.1276 71.4645 13.0889 71.4334 13.143 71.5189C13.2435 71.6588 13.2357 71.6666 13.1199 71.5733C13.0503 71.5111 13.0039 71.4256 13.0271 71.3712C13.0503 71.3168 12.9808 71.2079 12.8881 71.1224C12.7103 70.9747 12.7103 70.9747 12.8262 71.1302C12.9344 71.2701 12.9344 71.2779 12.8108 71.1768C12.7335 71.1224 12.6872 71.0447 12.7103 71.0136C12.7335 70.9825 12.6872 70.8892 12.6099 70.8037C12.5404 70.726 12.5094 70.7104 12.5558 70.7804C12.6253 70.8814 12.6176 70.8814 12.5017 70.7959C12.4322 70.7337 12.3858 70.6482 12.409 70.5938C12.4322 70.5394 12.3858 70.4461 12.3163 70.3839C12.2004 70.2906 12.1849 70.2906 12.2467 70.3839C12.2854 70.4616 12.2776 70.4772 12.2158 70.4383C12.1695 70.4072 12.1463 70.3528 12.1695 70.3217C12.1849 70.2828 12.1463 70.1896 12.0845 70.1118C12.0149 70.0341 11.9918 70.0108 12.0227 70.073C12.0613 70.1429 12.0458 70.1662 11.984 70.1274C11.9377 70.0963 11.9145 70.0419 11.9377 70.0108C11.9531 69.9719 11.9145 69.8786 11.8527 69.8009C11.7831 69.7231 11.76 69.6998 11.7909 69.762C11.8295 69.8397 11.814 69.8553 11.7522 69.8164C11.6981 69.7776 11.675 69.7387 11.6981 69.7154C11.76 69.6532 11.59 69.3733 11.5204 69.42C11.4818 69.4355 11.4586 69.3966 11.4663 69.3189C11.4663 69.2489 11.4277 69.1945 11.3736 69.2101C11.3273 69.2178 11.2886 69.2023 11.2886 69.1712C11.3118 69.0235 11.2732 68.9069 11.2191 68.9458C11.1805 68.9691 11.1496 68.9458 11.1496 68.8913C11.1496 68.7436 10.8868 68.3627 10.8173 68.4094C10.7864 68.4327 10.7632 68.386 10.771 68.3083C10.771 68.2383 10.74 68.1839 10.6937 68.1917C10.6396 68.1995 10.6087 68.1528 10.6164 68.0751C10.6164 68.0051 10.5778 67.9507 10.5237 67.9663C10.4619 67.974 10.4387 67.9507 10.4696 67.9118C10.5314 67.803 10.2764 67.4299 10.176 67.4921C10.1296 67.5154 10.1219 67.4998 10.1528 67.4532C10.2224 67.3366 10.0137 67.0256 9.92875 67.1111C9.89011 67.1422 9.89011 67.1267 9.92102 67.0723C9.98283 66.9634 9.66604 66.4115 9.57332 66.4737C9.53468 66.497 9.52696 66.4504 9.55787 66.3804C9.5965 66.2793 9.58104 66.2638 9.50378 66.3104C9.44197 66.3493 9.41879 66.3415 9.44969 66.2871C9.51151 66.1938 9.04018 65.3309 8.95518 65.3776C8.92428 65.4009 8.90882 65.3698 8.91655 65.3154C8.91655 65.2688 8.5534 64.4681 8.09753 63.5507C6.49811 60.2935 5.41638 57.1451 4.72098 53.6703C4.28829 51.5558 3.97923 49.0293 4.03331 48.0731L4.05649 47.5601L8.49931 51.4392ZM15.9942 74.6129C15.9942 74.6206 16.2491 74.8772 16.5505 75.1726L17.1145 75.7167L16.5737 75.1492C16.0792 74.6284 15.9942 74.5507 15.9942 74.6129Z"/>
</mask>
<path d="M8.49931 51.4392C10.9409 53.577 13.5603 55.8625 14.3098 56.5232C15.0592 57.184 15.7083 57.7204 15.7392 57.7204C15.7701 57.7204 17.7636 55.777 20.1666 53.4059C22.5618 51.0427 24.5321 49.107 24.5398 49.1148C24.5476 49.1226 24.648 49.5424 24.7639 50.0477C25.3202 52.5664 26.5333 55.2483 28.0786 57.4095C31.4166 62.0815 36.6784 65.1677 42.3189 65.7663L42.8056 65.8207V63.4808C42.8056 62.1903 42.8288 61.1409 42.8597 61.1409C42.8984 61.1409 44.7991 63.0532 47.0939 65.3931C49.3887 67.733 52.4639 70.8659 53.9243 72.3507L56.5745 75.0482L56.4045 75.2658C56.3118 75.3825 53.2212 78.9739 49.5433 83.2418L42.8443 91L42.8211 88.6756L42.8056 86.3513L42.0098 86.2969C36.8484 85.947 31.9497 84.6877 27.2442 82.4877C26.8269 82.2934 26.4483 82.1534 26.402 82.1845C26.3633 82.2078 26.3479 82.1923 26.3711 82.1534C26.4329 82.0524 26.2165 81.9513 26.0929 82.029C26.0388 82.0524 26.0234 82.0446 26.062 82.0135C26.1393 81.928 24.3544 80.9485 24.2385 81.0107C24.1844 81.0418 24.169 81.034 24.2076 81.0029C24.2849 80.9096 23.5817 80.4821 23.4658 80.5443C23.4117 80.5753 23.3963 80.5753 23.4272 80.5365C23.5122 80.451 22.9636 80.0856 22.8554 80.1556C22.8013 80.1944 22.7936 80.1789 22.8322 80.1089C22.8786 80.0312 22.8632 80.0156 22.7704 80.0545C22.7009 80.0778 22.6236 80.0623 22.5927 80.0156C22.5541 79.9612 22.5773 79.9534 22.6468 79.9845C22.7086 80.0156 22.67 79.969 22.5618 79.8835C22.4536 79.798 22.33 79.7358 22.2759 79.7591C22.2218 79.7746 22.16 79.7513 22.1291 79.7047C22.0905 79.6503 22.1137 79.6425 22.1755 79.6814C22.245 79.728 22.2605 79.7125 22.2218 79.6503C22.1832 79.5958 22.1137 79.5725 22.0519 79.5958C21.99 79.6192 21.9514 79.5958 21.9669 79.5414C21.9746 79.487 21.9205 79.4481 21.851 79.4481C21.7814 79.4481 21.6964 79.4171 21.6578 79.3782C21.6192 79.3393 21.6423 79.3315 21.7119 79.3626C21.7737 79.3937 21.7428 79.3471 21.6346 79.2616C21.5264 79.1761 21.3874 79.1139 21.3256 79.1216C21.2637 79.1294 21.2097 79.0828 21.2097 79.0206C21.2097 78.9584 21.1478 78.904 21.0783 78.904C21.0088 78.904 20.9238 78.8729 20.8851 78.834C20.8465 78.7951 20.8697 78.7874 20.9315 78.8262C21.0088 78.8729 21.0242 78.8573 20.9856 78.7951C20.9469 78.7407 20.8774 78.7174 20.8156 78.7407C20.7615 78.7641 20.692 78.7407 20.6611 78.6941C20.6224 78.6397 20.6456 78.6319 20.7151 78.6708C20.8079 78.733 20.8079 78.7174 20.7151 78.6086C20.6611 78.5308 20.5529 78.4842 20.4833 78.492C20.4215 78.5075 20.3597 78.4609 20.3597 78.3987C20.3597 78.3365 20.2902 78.2821 20.2052 78.2821C20.1202 78.2821 20.0507 78.2277 20.0507 78.1655C20.0507 78.1033 19.9888 78.0489 19.9193 78.0489C19.842 78.0489 19.7416 77.9944 19.6875 77.9323C19.6025 77.839 19.6102 77.839 19.7416 77.9323C19.8884 78.0411 19.8884 78.0411 19.7879 77.9089C19.7261 77.8312 19.6334 77.7846 19.5793 77.8079C19.5252 77.8312 19.4402 77.7846 19.3784 77.7146C19.2857 77.5902 19.2934 77.5902 19.4325 77.699C19.5871 77.8157 19.5871 77.8157 19.4402 77.6369C19.3553 77.5436 19.2471 77.4736 19.193 77.4969C19.1389 77.5202 19.0539 77.4736 18.9921 77.4036C18.8994 77.2793 18.9071 77.2793 19.0462 77.3881C19.2007 77.5047 19.2007 77.5047 19.0539 77.3259C18.9689 77.2326 18.8607 77.1627 18.8067 77.186C18.7526 77.2093 18.6676 77.1627 18.6058 77.0927C18.5131 76.9761 18.5208 76.9683 18.6599 77.0694C18.7449 77.1238 18.7139 77.0849 18.598 76.9683C18.4744 76.8595 18.3508 76.7817 18.3199 76.8051C18.2812 76.8206 18.1885 76.7662 18.1113 76.6651C17.9645 76.4941 17.9645 76.4941 18.1267 76.6107C18.2117 76.6729 18.1808 76.6263 18.0649 76.5097C17.9413 76.393 17.8099 76.3153 17.779 76.3309C17.7481 76.3542 17.6322 76.2764 17.5318 76.1598L17.3463 75.9499L17.5472 76.1054C17.6554 76.1909 17.609 76.1287 17.4468 75.9655C17.2845 75.8022 17.1223 75.6856 17.0913 75.709C17.0527 75.7323 16.7668 75.4835 16.4578 75.1726C16.141 74.8538 15.9169 74.5895 15.9555 74.5895C15.9942 74.5895 15.9246 74.4885 15.801 74.3563C15.6851 74.2319 15.5537 74.1464 15.5151 74.1697C15.4765 74.1931 15.461 74.1697 15.4688 74.1076C15.4842 74.0531 15.4456 74.0143 15.3915 74.0298C15.3297 74.0376 15.3065 74.022 15.3297 73.9832C15.3529 73.9443 15.1674 73.7266 14.9279 73.4934L14.4875 73.0736L14.8738 73.5012L15.2601 73.9288L14.8583 73.5478C14.6343 73.3379 14.472 73.1358 14.4952 73.097C14.5184 73.0659 14.387 72.8871 14.2016 72.7005C14.0161 72.5139 13.9543 72.4751 14.0625 72.6072L14.2557 72.8404L14.0084 72.615C13.8771 72.4984 13.7843 72.3507 13.7998 72.304C13.823 72.2496 13.738 72.1252 13.6221 72.0242L13.4057 71.8298L13.5603 72.0242L13.7148 72.2185L13.5448 72.0708C13.4444 71.9931 13.3903 71.8998 13.4057 71.8609C13.4289 71.8298 13.3517 71.7055 13.2435 71.5811C13.1276 71.4645 13.0889 71.4334 13.143 71.5189C13.2435 71.6588 13.2357 71.6666 13.1199 71.5733C13.0503 71.5111 13.0039 71.4256 13.0271 71.3712C13.0503 71.3168 12.9808 71.2079 12.8881 71.1224C12.7103 70.9747 12.7103 70.9747 12.8262 71.1302C12.9344 71.2701 12.9344 71.2779 12.8108 71.1768C12.7335 71.1224 12.6872 71.0447 12.7103 71.0136C12.7335 70.9825 12.6872 70.8892 12.6099 70.8037C12.5404 70.726 12.5094 70.7104 12.5558 70.7804C12.6253 70.8814 12.6176 70.8814 12.5017 70.7959C12.4322 70.7337 12.3858 70.6482 12.409 70.5938C12.4322 70.5394 12.3858 70.4461 12.3163 70.3839C12.2004 70.2906 12.1849 70.2906 12.2467 70.3839C12.2854 70.4616 12.2776 70.4772 12.2158 70.4383C12.1695 70.4072 12.1463 70.3528 12.1695 70.3217C12.1849 70.2828 12.1463 70.1896 12.0845 70.1118C12.0149 70.0341 11.9918 70.0108 12.0227 70.073C12.0613 70.1429 12.0458 70.1662 11.984 70.1274C11.9377 70.0963 11.9145 70.0419 11.9377 70.0108C11.9531 69.9719 11.9145 69.8786 11.8527 69.8009C11.7831 69.7231 11.76 69.6998 11.7909 69.762C11.8295 69.8397 11.814 69.8553 11.7522 69.8164C11.6981 69.7776 11.675 69.7387 11.6981 69.7154C11.76 69.6532 11.59 69.3733 11.5204 69.42C11.4818 69.4355 11.4586 69.3966 11.4663 69.3189C11.4663 69.2489 11.4277 69.1945 11.3736 69.2101C11.3273 69.2178 11.2886 69.2023 11.2886 69.1712C11.3118 69.0235 11.2732 68.9069 11.2191 68.9458C11.1805 68.9691 11.1496 68.9458 11.1496 68.8913C11.1496 68.7436 10.8868 68.3627 10.8173 68.4094C10.7864 68.4327 10.7632 68.386 10.771 68.3083C10.771 68.2383 10.74 68.1839 10.6937 68.1917C10.6396 68.1995 10.6087 68.1528 10.6164 68.0751C10.6164 68.0051 10.5778 67.9507 10.5237 67.9663C10.4619 67.974 10.4387 67.9507 10.4696 67.9118C10.5314 67.803 10.2764 67.4299 10.176 67.4921C10.1296 67.5154 10.1219 67.4998 10.1528 67.4532C10.2224 67.3366 10.0137 67.0256 9.92875 67.1111C9.89011 67.1422 9.89011 67.1267 9.92102 67.0723C9.98283 66.9634 9.66604 66.4115 9.57332 66.4737C9.53468 66.497 9.52696 66.4504 9.55787 66.3804C9.5965 66.2793 9.58104 66.2638 9.50378 66.3104C9.44197 66.3493 9.41879 66.3415 9.44969 66.2871C9.51151 66.1938 9.04018 65.3309 8.95518 65.3776C8.92428 65.4009 8.90882 65.3698 8.91655 65.3154C8.91655 65.2688 8.5534 64.4681 8.09753 63.5507C6.49811 60.2935 5.41638 57.1451 4.72098 53.6703C4.28829 51.5558 3.97923 49.0293 4.03331 48.0731L4.05649 47.5601L8.49931 51.4392ZM15.9942 74.6129C15.9942 74.6206 16.2491 74.8772 16.5505 75.1726L17.1145 75.7167L16.5737 75.1492C16.0792 74.6284 15.9942 74.5507 15.9942 74.6129Z" fill="#99D0D3" stroke="#16354D" stroke-width="2" mask="url(#path-7-inside-2_47_270)"/>
<path d="M55.9796 73.5945L57.4476 75.0948L55.9564 73.6178C55.1451 72.8093 54.4729 72.133 54.4729 72.1252C54.4729 72.063 54.6197 72.2107 55.9796 73.5945Z" fill="#99D0D3"/>
<g filter="url(#filter0_i_47_270)">
<path d="M30.0103 50.2351C29.9153 50.2351 29.8289 50.2004 29.7512 50.131C29.6822 50.0616 29.6476 49.9793 29.6476 49.8839V47.9718C29.6476 47.8764 29.6822 47.7941 29.7512 47.7247C29.8203 47.6553 29.9023 47.6206 29.9973 47.6206C30.6363 47.6206 30.9558 47.2868 30.9558 46.6191V41.3512C30.9558 41.2558 30.9903 41.1734 31.0594 41.1041C31.1285 41.0347 31.2105 41 31.3055 41H38.6624C38.7574 41 38.8394 41.0347 38.9085 41.1041C38.9776 41.1734 39.0121 41.2558 39.0121 41.3512V49.7538C39.0121 49.8492 38.9776 49.9316 38.9085 50.0009C38.8394 50.0703 38.7574 50.105 38.6624 50.105H36.1238C36.0288 50.105 35.9468 50.0703 35.8777 50.0009C35.8086 49.9316 35.7741 49.8492 35.7741 49.7538V43.8616H34.1939V46.5801C34.1939 47.7941 33.8183 48.7089 33.067 49.3246C32.3158 49.9316 31.2969 50.2351 30.0103 50.2351Z" fill="#EEEEEE"/>
<path d="M43.5275 41H46.3382C46.649 41 46.8433 41.1431 46.921 41.4292L49.8094 49.7278C49.818 49.7538 49.8223 49.7972 49.8223 49.8579C49.8223 49.9099 49.7921 49.9662 49.7317 50.0269C49.6799 50.079 49.6151 50.105 49.5374 50.105H47.1412C46.8822 50.105 46.7138 49.9966 46.6361 49.7798L46.3252 48.9213H43.5405L43.2296 49.7798C43.1519 49.9966 42.9835 50.105 42.7245 50.105H40.3283C40.2506 50.105 40.1815 50.079 40.1211 50.0269C40.0693 49.9662 40.0434 49.9099 40.0434 49.8579C40.0434 49.7972 40.0477 49.7538 40.0563 49.7278L42.9447 41.4292C43.0224 41.1431 43.2167 41 43.5275 41ZM44.201 46.385H45.6647L44.9264 43.9656L44.201 46.385Z" fill="#EEEEEE"/>
<path d="M52.3112 41H59.4091C59.5041 41 59.5861 41.0347 59.6552 41.1041C59.7242 41.1734 59.7588 41.2558 59.7588 41.3512V47.2434H60.3157C60.4107 47.2434 60.4927 47.2781 60.5618 47.3475C60.6309 47.4169 60.6654 47.4992 60.6654 47.5946V51.3537C60.6654 51.4491 60.6309 51.5314 60.5618 51.6008C60.4927 51.6702 60.4107 51.7049 60.3157 51.7049H57.7771C57.6821 51.7049 57.6001 51.6702 57.531 51.6008C57.4619 51.5314 57.4274 51.4491 57.4274 51.3537V50.105H53.9043V51.3537C53.9043 51.4491 53.8698 51.5314 53.8007 51.6008C53.7316 51.6702 53.6496 51.7049 53.5546 51.7049H51.016C50.921 51.7049 50.839 51.6702 50.7699 51.6008C50.7008 51.5401 50.6663 51.4577 50.6663 51.3537V47.5946C50.6663 47.4992 50.7008 47.4169 50.7699 47.3475C50.839 47.2781 50.921 47.2434 51.016 47.2434H51.0678C51.3268 47.2434 51.5384 47.1567 51.7024 46.9833C51.8751 46.8099 51.9615 46.5627 51.9615 46.2419V41.3512C51.9615 41.2558 51.996 41.1734 52.0651 41.1041C52.1342 41.0347 52.2162 41 52.3112 41ZM56.5207 43.8616H55.1996V46.2549C55.1996 46.7405 55.1607 47.07 55.083 47.2434H56.5207V43.8616Z" fill="#EEEEEE"/>
<path d="M29.3627 50.2351C29.2677 50.2351 29.1813 50.2004 29.1036 50.131C29.0345 50.0616 29 49.9793 29 49.8839V47.9718C29 47.8764 29.0345 47.7941 29.1036 47.7247C29.1727 47.6553 29.2547 47.6206 29.3497 47.6206C29.9887 47.6206 30.3082 47.2868 30.3082 46.6191V41.3512C30.3082 41.2558 30.3427 41.1734 30.4118 41.1041C30.4809 41.0347 30.5629 41 30.6579 41H38.0148C38.1098 41 38.1918 41.0347 38.2609 41.1041C38.33 41.1734 38.3645 41.2558 38.3645 41.3512V49.7538C38.3645 49.8492 38.33 49.9316 38.2609 50.0009C38.1918 50.0703 38.1098 50.105 38.0148 50.105H35.4762C35.3812 50.105 35.2991 50.0703 35.2301 50.0009C35.161 49.9316 35.1264 49.8492 35.1264 49.7538V43.8616H33.5463V46.5801C33.5463 47.7941 33.1706 48.7089 32.4194 49.3246C31.6682 49.9316 30.6493 50.2351 29.3627 50.2351Z" fill="#99D0D3"/>
<path d="M42.8799 41H45.6906C46.0014 41 46.1957 41.1431 46.2734 41.4292L49.1618 49.7278C49.1704 49.7538 49.1747 49.7972 49.1747 49.8579C49.1747 49.9099 49.1445 49.9662 49.0841 50.0269C49.0323 50.079 48.9675 50.105 48.8898 50.105H46.4936C46.2346 50.105 46.0662 49.9966 45.9885 49.7798L45.6776 48.9213H42.8929L42.582 49.7798C42.5043 49.9966 42.3359 50.105 42.0769 50.105H39.6807C39.603 50.105 39.5339 50.079 39.4735 50.0269C39.4216 49.9662 39.3957 49.9099 39.3957 49.8579C39.3957 49.7972 39.4001 49.7538 39.4087 49.7278L42.2971 41.4292C42.3748 41.1431 42.5691 41 42.8799 41ZM43.5534 46.385H45.017L44.2788 43.9656L43.5534 46.385Z" fill="#99D0D3"/>
<path d="M51.6636 41H58.7615C58.8564 41 58.9385 41.0347 59.0075 41.1041C59.0766 41.1734 59.1112 41.2558 59.1112 41.3512V47.2434H59.6681C59.7631 47.2434 59.8451 47.2781 59.9142 47.3475C59.9833 47.4169 60.0178 47.4992 60.0178 47.5946V51.3537C60.0178 51.4491 59.9833 51.5314 59.9142 51.6008C59.8451 51.6702 59.7631 51.7049 59.6681 51.7049H57.1295C57.0345 51.7049 56.9524 51.6702 56.8834 51.6008C56.8143 51.5314 56.7798 51.4491 56.7798 51.3537V50.105H53.2567V51.3537C53.2567 51.4491 53.2222 51.5314 53.1531 51.6008C53.084 51.6702 53.002 51.7049 52.907 51.7049H50.3684C50.2734 51.7049 50.1913 51.6702 50.1223 51.6008C50.0532 51.5401 50.0187 51.4577 50.0187 51.3537V47.5946C50.0187 47.4992 50.0532 47.4169 50.1223 47.3475C50.1913 47.2781 50.2734 47.2434 50.3684 47.2434H50.4202C50.6792 47.2434 50.8908 47.1567 51.0548 46.9833C51.2275 46.8099 51.3139 46.5627 51.3139 46.2419V41.3512C51.3139 41.2558 51.3484 41.1734 51.4175 41.1041C51.4866 41.0347 51.5686 41 51.6636 41ZM55.8731 43.8616H54.552V46.2549C54.552 46.7405 54.5131 47.07 54.4354 47.2434H55.8731V43.8616Z" fill="#99D0D3"/>
</g>
<defs>
<filter id="filter0_i_47_270" x="29" y="41" width="31.6654" height="14.7049" filterUnits="userSpaceOnUse" color-interpolation-filters="sRGB">
<feFlood flood-opacity="0" result="BackgroundImageFix"/>
<feBlend mode="normal" in="SourceGraphic" in2="BackgroundImageFix" result="shape"/>
<feColorMatrix in="SourceAlpha" type="matrix" values="0 0 0 0 0 0 0 0 0 0 0 0 0 0 0 0 0 0 127 0" result="hardAlpha"/>
<feOffset dy="4"/>
<feGaussianBlur stdDeviation="2"/>
<feComposite in2="hardAlpha" operator="arithmetic" k2="-1" k3="1"/>
<feColorMatrix type="matrix" values="0 0 0 0 0 0 0 0 0 0 0 0 0 0 0 0 0 0 0.25 0"/>
<feBlend mode="normal" in2="shape" result="effect1_innerShadow_47_270"/>
</filter>
</defs>
</svg>
