<svg width="40" height="40" viewBox="0 0 40 40" fill="none" xmlns="http://www.w3.org/2000/svg">
<circle cx="20" cy="20" r="18.5" stroke="#16354D" stroke-width="3"/>
<path d="M28.7298 25.3129L26.7288 23.9825L24.9499 22.8001C24.6066 22.5723 24.1452 22.647 23.8918 22.9714L22.791 24.3825C22.5546 24.6887 22.1293 24.7767 21.7902 24.5895C21.0433 24.1752 20.1601 23.7851 18.2113 21.8392C16.2626 19.8934 15.8689 19.0151 15.4534 18.2703C15.2657 17.9322 15.3539 17.508 15.661 17.2723L17.0761 16.1746C17.4013 15.9219 17.4763 15.4618 17.2478 15.1195L16.0986 13.4002L14.728 11.35C14.4947 11.0011 14.0278 10.8963 13.6671 11.112L12.0865 12.0576C11.6593 12.3086 11.3453 12.7138 11.2095 13.1894C10.7773 14.761 10.6901 18.2278 16.2616 23.7838C21.8331 29.3398 25.3093 29.2527 26.8853 28.8216C27.3621 28.6862 27.7685 28.3731 28.0202 27.947L28.9685 26.3708C29.1848 26.0112 29.0797 25.5455 28.7298 25.3129Z" fill="#16354D"/>
<path d="M21.3003 13.793C24.2208 13.7963 26.5875 16.1564 26.5908 19.0688C26.5908 19.2402 26.7301 19.3792 26.902 19.3792C27.0738 19.3792 27.2132 19.2403 27.2132 19.0688C27.2096 15.8138 24.5644 13.1759 21.3003 13.1724C21.1284 13.1724 20.9891 13.3113 20.9891 13.4827C20.989 13.6541 21.1284 13.793 21.3003 13.793Z" fill="#16354D"/>
<path d="M21.3003 15.6549C23.19 15.6571 24.7213 17.1842 24.7236 19.0686C24.7236 19.24 24.8629 19.379 25.0348 19.379C25.2066 19.379 25.346 19.2401 25.346 19.0686C25.3434 16.8415 23.5336 15.0367 21.3003 15.0342C21.1284 15.0342 20.9891 15.1731 20.9891 15.3445C20.9891 15.516 21.1284 15.6549 21.3003 15.6549Z" fill="#16354D"/>
<path d="M21.3003 17.5172C22.1592 17.5182 22.8553 18.2123 22.8563 19.0689C22.8563 19.2403 22.9956 19.3792 23.1675 19.3792C23.3394 19.3792 23.4787 19.2403 23.4787 19.0689C23.4774 17.8697 22.5028 16.8979 21.3003 16.8965C21.1284 16.8965 20.9891 17.0354 20.9891 17.2068C20.989 17.3782 21.1284 17.5172 21.3003 17.5172Z" fill="#16354D"/>
</svg>
