<svg width="38" height="25" viewBox="0 0 38 25" fill="none" xmlns="http://www.w3.org/2000/svg">
<path d="M32.246 0H5.62945C4.92876 0 4.36374 0.508363 4.36374 1.13701C4.36374 1.76567 4.92876 2.27117 5.62945 2.27117H32.246C34.0209 2.27117 35.4654 3.57 35.4654 5.16239V5.27265H5.62945C4.92876 5.27265 4.36374 5.77815 4.36374 6.40681C4.36374 7.03403 4.92876 7.54239 5.62945 7.54239H35.4654V19.839C35.4654 21.43 34.0209 22.7288 32.246 22.7288H5.75235C3.97749 22.7288 2.53301 21.43 2.53301 19.839V5.04926C2.53301 4.42061 1.9664 3.91225 1.26731 3.91225C0.566616 3.91225 0 4.42061 0 5.04926V19.839C0 22.6859 2.5809 25 5.75235 25H32.246C35.4175 25 38 22.6859 38 19.839V5.16239C38 2.31556 35.4175 0 32.246 0ZM31.5071 16.2218C32.2062 16.2218 32.7744 15.7134 32.7744 15.0862C32.7744 14.4561 32.2062 13.9506 31.5071 13.9506H18.9378C18.2371 13.9506 17.6704 14.4561 17.6704 15.0862C17.6704 15.7134 18.2371 16.2218 18.9378 16.2218H31.5071ZM7.51604 13.3248H11.4425V16.8461H7.51604V13.3248ZM12.7082 19.1202C13.4089 19.1202 13.9755 18.6118 13.9755 17.9817V12.1878C13.9755 11.5606 13.4089 11.0508 12.7082 11.0508H6.25034C5.54965 11.0508 4.98463 11.5606 4.98463 12.1878V17.9817C4.98463 18.6118 5.54965 19.1202 6.25034 19.1202H12.7082Z" fill="#B1A084"/>
</svg>
