<svg width="37" height="25" viewBox="0 0 37 25" fill="none" xmlns="http://www.w3.org/2000/svg">
<path d="M36.9995 12.8774C36.9995 12.871 36.9991 12.8646 36.999 12.8551C36.9888 12.3758 36.6165 11.9939 36.1472 11.9939H35.9236L32.4695 5.09109C32.3238 4.79947 32.0332 4.61812 31.7123 4.61802L25.8153 4.61675L26.0403 2.77341C26.1045 2.03676 25.8842 1.34123 25.4198 0.814768C24.9563 0.289395 24.3091 0 23.5975 0H5.29531C4.83513 0 4.44422 0.368055 4.40035 0.842561L4.21689 2.36128H14.6446C15.3216 2.36128 15.8562 2.92866 15.8385 3.62856C15.8207 4.32847 15.2575 4.89582 14.5804 4.89582H11.1022C11.1028 4.89763 11.1034 4.899 11.104 4.90219H0.890014C0.411181 4.90219 0.0128247 5.30336 0.000302351 5.79833C-0.0122191 6.2933 0.365732 6.69447 0.844565 6.69447H14.3668C14.9945 6.79454 15.4634 7.35552 15.4462 8.03486C15.4273 8.78095 14.8298 9.38587 14.1092 9.39212H4.78671C4.30306 9.39212 3.90076 9.79737 3.88806 10.2973C3.87536 10.7973 4.25717 11.2025 4.74082 11.2025H13.9535C14.5904 11.2943 15.0687 11.8599 15.0514 12.5458C15.0324 13.2957 14.4289 13.9036 13.7034 13.9036H3.13435V13.9046H2.2463C1.76265 13.9046 1.36035 14.3099 1.34766 14.8098C1.33495 15.3097 1.71668 15.715 2.20041 15.715H2.96683L2.66707 18.9572C2.6028 19.6938 2.82312 20.3893 3.2876 20.9158C3.75102 21.4412 4.39825 21.7305 5.10993 21.7305H5.77108C6.08616 23.5929 7.64491 25 9.55157 25C11.4582 25 13.0883 23.5929 13.4975 21.7306H21.7482C22.4154 21.7306 23.0469 21.4671 23.5422 21.0353C23.9951 21.4846 24.5955 21.7306 25.251 21.7306H25.3868C25.7018 23.5929 27.2605 25 29.1673 25C31.0739 25 32.704 23.5929 33.1132 21.7306H33.6578C35.0765 21.7306 36.3347 20.5384 36.4626 19.073L36.9962 12.9624C36.9969 12.9528 36.9966 12.9465 36.9971 12.9369C36.998 12.9241 36.9996 12.9114 37 12.8993C37.0001 12.8929 36.9994 12.8834 36.9994 12.877L36.9995 12.8774ZM9.59747 23.1894C8.39031 23.1894 7.43387 22.1743 7.46549 20.9265C7.4971 19.6786 8.50494 18.6635 9.7121 18.6635C10.9192 18.6635 11.8756 19.6786 11.844 20.9265C11.8124 22.1743 10.8046 23.1894 9.59747 23.1894ZM29.2132 23.1894C28.006 23.1894 27.0497 22.1743 27.0812 20.9265C27.1128 19.6786 28.1206 18.6635 29.3278 18.6635C30.5349 18.6635 31.4914 19.6786 31.4597 20.9265C31.4281 22.1743 30.4203 23.1894 29.2132 23.1894ZM34.7178 18.957C34.6723 19.479 34.2079 19.9201 33.7038 19.9201H33.1147C32.7246 18.1592 31.2105 16.8531 29.3736 16.8531C27.5366 16.8531 25.9564 18.1592 25.4772 19.9201H25.2969C25.0743 19.9201 24.8757 19.8337 24.7375 19.6769C24.5983 19.5191 24.5328 19.3046 24.553 19.0726L25.6572 6.42786L28.1931 6.4284L27.7912 11.0315C27.7268 11.768 27.9471 12.4636 28.4115 12.99C28.8749 13.5156 29.5223 13.8051 30.2341 13.8051H35.1676L34.7178 18.9569L34.7178 18.957Z" fill="#B1A084"/>
</svg>
