<svg width="40" height="40" viewBox="0 0 40 40" fill="none" xmlns="http://www.w3.org/2000/svg">
<path d="M33.5016 39.7402C33.335 39.7674 33.1677 39.7924 32.9999 39.8153C33.1677 39.7924 33.335 39.7674 33.5016 39.7402Z" fill="#16354D"/>
<path d="M32.2389 39.6714C32.1593 39.686 32.0796 39.6995 32 39.7132C32.0796 39.6995 32.1593 39.686 32.2389 39.6714Z" fill="#16354D"/>
<path d="M35.588 39.8696C35.393 39.8916 35.1967 39.9111 34.9999 39.9276C35.1967 39.9111 35.393 39.8916 35.588 39.8696Z" fill="#16354D"/>
<path d="M34.2818 39.8228C34.1881 39.8356 34.0938 39.8475 33.9998 39.8587C34.0938 39.8475 34.1881 39.8356 34.2818 39.8228Z" fill="#16354D"/>
<path d="M31.211 39.564C31.1408 39.5789 31.0703 39.5939 30.9998 39.6082C31.0703 39.5939 31.1408 39.5789 31.211 39.564Z" fill="#16354D"/>
<path d="M28.1712 39.228C28.1141 39.2442 28.057 39.2595 27.9999 39.2753C28.057 39.2595 28.1141 39.2442 28.1712 39.228Z" fill="#16354D"/>
<path d="M29.1853 39.3398C29.1237 39.356 29.0617 39.3725 28.9998 39.3881C29.0617 39.3725 29.1237 39.3563 29.1853 39.3398Z" fill="#16354D"/>
<path d="M30.1971 39.4731C30.1318 39.4884 30.0659 39.5027 29.9999 39.5174C30.0659 39.5027 30.1318 39.4884 30.1971 39.4731Z" fill="#16354D"/>
<path d="M36.316 39.9282C36.2107 39.9373 36.1054 39.9454 35.9998 39.9526C36.1054 39.9454 36.2107 39.9373 36.316 39.9282Z" fill="#16354D"/>
<path d="M40 20C40 8.95599 31.044 0 20 0C8.95599 0 0 8.95599 0 20C0 31.044 8.95599 40 20 40C20.1175 40 20.2344 39.9976 20.3516 39.9954V24.4263H16.0547V19.4186H20.3516V15.7336C20.3516 11.46 22.9605 9.13391 26.7728 9.13391C28.5983 9.13391 30.1675 9.27002 30.625 9.33075V13.7973H27.9962C25.9222 13.7973 25.5206 14.783 25.5206 16.2292V19.4186H30.4797L29.8334 24.4263H25.5206V39.2273C33.8803 36.8307 40 29.129 40 20Z" fill="#16354D"/>
<path d="M37.6268 39.9556C37.4187 39.9693 37.2096 39.9803 37 39.9875C37.2096 39.9803 37.4187 39.9693 37.6268 39.9556Z" fill="#16354D"/>
<path d="M38.3319 39.9868C38.2214 39.9906 38.1107 39.9934 37.9999 39.9953C38.1107 39.9934 38.2214 39.9906 38.3319 39.9868Z" fill="#16354D"/>
</svg>
