<svg width="10" height="10" viewBox="0 0 10 10" fill="none" xmlns="http://www.w3.org/2000/svg">
<path d="M0 0.333333C0 0.244928 0.03512 0.160143 0.0976341 0.0976311C0.160148 0.0351189 0.244935 0 0.333344 0H1.33337C1.40773 2.0541e-05 1.47995 0.0249005 1.53853 0.0706832C1.59712 0.116466 1.63872 0.180523 1.65672 0.252667L1.92673 1.33333H9.66696C9.71591 1.33338 9.76425 1.3442 9.80854 1.36503C9.85283 1.38587 9.89199 1.4162 9.92323 1.45387C9.95448 1.49154 9.97705 1.53563 9.98933 1.58301C10.0016 1.63039 10.0033 1.67989 9.99431 1.728L8.99428 7.06133C8.97998 7.13772 8.93944 7.20671 8.87967 7.25637C8.8199 7.30604 8.74465 7.33326 8.66693 7.33333H2.66675C2.58903 7.33326 2.51379 7.30604 2.45402 7.25637C2.39424 7.20671 2.3537 7.13772 2.33941 7.06133L1.34004 1.738L1.07337 0.666667H0.333344C0.244935 0.666667 0.160148 0.631548 0.0976341 0.569036C0.03512 0.506523 0 0.421739 0 0.333333ZM2.06806 2L2.94342 6.66667H8.39026L9.26562 2H2.06806ZM3.33344 7.33333C2.9798 7.33333 2.64065 7.47381 2.3906 7.72386C2.14054 7.97391 2.00006 8.31304 2.00006 8.66667C2.00006 9.02029 2.14054 9.35943 2.3906 9.60947C2.64065 9.85952 2.9798 10 3.33344 10C3.68707 10 4.02622 9.85952 4.27627 9.60947C4.52633 9.35943 4.66681 9.02029 4.66681 8.66667C4.66681 8.31304 4.52633 7.97391 4.27627 7.72386C4.02622 7.47381 3.68707 7.33333 3.33344 7.33333ZM8.00025 7.33333C7.64661 7.33333 7.30746 7.47381 7.05741 7.72386C6.80735 7.97391 6.66687 8.31304 6.66687 8.66667C6.66687 9.02029 6.80735 9.35943 7.05741 9.60947C7.30746 9.85952 7.64661 10 8.00025 10C8.35388 10 8.69303 9.85952 8.94308 9.60947C9.19314 9.35943 9.33362 9.02029 9.33362 8.66667C9.33362 8.31304 9.19314 7.97391 8.94308 7.72386C8.69303 7.47381 8.35388 7.33333 8.00025 7.33333ZM3.33344 8C3.51025 8 3.67983 8.07024 3.80486 8.19526C3.92988 8.32029 4.00012 8.48986 4.00012 8.66667C4.00012 8.84348 3.92988 9.01305 3.80486 9.13807C3.67983 9.26309 3.51025 9.33333 3.33344 9.33333C3.15662 9.33333 2.98705 9.26309 2.86202 9.13807C2.73699 9.01305 2.66675 8.84348 2.66675 8.66667C2.66675 8.48986 2.73699 8.32029 2.86202 8.19526C2.98705 8.07024 3.15662 8 3.33344 8ZM8.00025 8C8.17706 8 8.34664 8.07024 8.47167 8.19526C8.59669 8.32029 8.66693 8.48986 8.66693 8.66667C8.66693 8.84348 8.59669 9.01305 8.47167 9.13807C8.34664 9.26309 8.17706 9.33333 8.00025 9.33333C7.82343 9.33333 7.65386 9.26309 7.52883 9.13807C7.4038 9.01305 7.33356 8.84348 7.33356 8.66667C7.33356 8.48986 7.4038 8.32029 7.52883 8.19526C7.65386 8.07024 7.82343 8 8.00025 8V8Z" fill="#444444"/>
</svg>
