<svg width="32" height="32" viewBox="0 0 32 32" fill="none" xmlns="http://www.w3.org/2000/svg">
<path d="M29 15.9998C29 22.6148 22.615 28.9998 16 28.9998C9.385 28.9998 3 22.615 3 16C3 9.38497 9.385 2.99976 16 2.99976C22.615 2.99976 29 9.38482 29 15.9998ZM31 16C31 7.71997 24.28 0.999971 16 0.99997C7.72001 0.999968 1 7.71997 1 16C1 24.28 7.72 31 16 31C24.28 31 31 24.28 31 16Z" fill="#444444"/>
<path d="M22 17.4998L16 17.4998L16 21.9998L10 15.9998L16 9.99982L16 14.4998L22 14.4998L22 17.4998Z" fill="#444444"/>
<path d="M29 15.9998C29 22.6148 22.615 28.9998 16 28.9998C9.385 28.9998 3 22.615 3 16C3 9.38497 9.385 2.99976 16 2.99976C22.615 2.99976 29 9.38482 29 15.9998ZM31 16C31 7.71997 24.28 0.999971 16 0.99997C7.72001 0.999968 1 7.71997 1 16C1 24.28 7.72 31 16 31C24.28 31 31 24.28 31 16Z" stroke="#B1A084"/>
<path d="M22 17.4998L16 17.4998L16 21.9998L10 15.9998L16 9.99982L16 14.4998L22 14.4998L22 17.4998Z" stroke="#B1A084"/>
</svg>
