<svg width="104" height="28" viewBox="0 0 104 28" fill="none" xmlns="http://www.w3.org/2000/svg">
<path d="M68.6696 0.412908C65.9546 1.45094 63.0587 5.28092 62.1899 8.96772C61.9727 9.86257 62.0089 9.96995 62.5881 9.7194C62.9501 9.57622 64.1809 9.14669 65.3031 8.75295C66.8596 8.21604 67.5836 7.75072 68.0904 6.89166C68.4886 6.24736 69.2488 5.53148 69.7555 5.31671C70.9501 4.7798 72.7239 4.7798 73.0497 5.28092C73.3393 5.78204 75.0768 5.53148 77.104 4.63662L78.6605 3.99233L77.9003 2.99009C75.9094 0.520291 71.6379 -0.696711 68.6696 0.412908Z" fill="#444444"/>
<path d="M1.4119 0.484417C1.30331 0.663388 1.12231 3.13319 0.977515 6.03251L0.724121 11.3301H2.75127H4.77842L4.81462 8.89605L4.85082 6.49784L5.17661 8.10858C5.90059 11.6164 5.7196 11.3301 7.67435 11.3301C9.04991 11.3301 9.4843 11.1869 9.4843 10.7931C9.4843 10.2562 7.78294 2.02357 7.45715 0.842359C7.27616 0.34124 6.80557 0.233858 4.41643 0.233858C2.85987 0.233858 1.4843 0.34124 1.4119 0.484417Z" fill="#444444"/>
<path d="M16.5791 0.555876C16.9411 0.913818 20.2714 2.02344 20.8868 2.02344C21.1764 2.02344 21.2488 1.6655 21.1402 1.12858C20.9954 0.269523 20.8506 0.233729 18.6062 0.233729C17.2307 0.233729 16.3619 0.376905 16.5791 0.555876Z" fill="#444444"/>
<path d="M28.8147 0.734898C28.7061 0.985457 28.6699 2.05928 28.7423 3.09731L28.8509 4.9944L30.6608 5.6387C33.4481 6.60514 33.3757 6.67673 33.3757 3.27628V0.233779H31.2038C29.6834 0.233779 28.9595 0.376956 28.8147 0.734898Z" fill="#444444"/>
<path d="M48.1084 0.770643C41.9183 3.02568 38.1898 10.5067 40.0722 16.9138C42.1717 24.2158 49.4115 28.189 56.4342 25.8624C59.1491 24.9675 59.5111 24.359 57.4477 24.1084C54.0088 23.6431 50.6785 21.1375 48.9047 17.7013C47.674 15.3747 47.5292 10.7572 48.579 8.00107C49.5925 5.3165 52.4161 2.41718 54.9138 1.48653C56.5428 0.842231 56.6152 0.770643 55.8188 0.555878C54.2622 0.126348 49.5201 0.269525 48.1084 0.770643Z" fill="#444444"/>
<path d="M87.1313 0.591681C86.8417 1.057 88.0363 1.057 88.7603 0.591681C89.1947 0.305327 89.0861 0.233739 88.3259 0.233739C87.7829 0.233739 87.2399 0.376916 87.1313 0.591681Z" fill="#444444"/>
<path d="M99.6201 7.17783V14.1935L100.489 14.4083C100.959 14.5156 101.864 14.5514 102.552 14.4798L103.783 14.3725V7.3926V0.412734L101.72 0.305351L99.6201 0.197969V7.17783Z" fill="#444444"/>
<path d="M91.2941 1.9162C91.0045 2.02358 89.8823 2.41732 88.8687 2.81105L86.9502 3.49114V8.60971V13.7283L88.3258 13.9788C89.0497 14.0862 90.0633 14.1936 90.5339 14.1936H91.4027L91.1855 10.9721C91.0407 9.18242 91.0045 7.75065 91.0769 7.75065C91.1855 7.75065 91.4389 8.35915 91.6923 9.07504C91.9095 9.82671 92.4163 11.2943 92.8144 12.2965L93.5022 14.1936H95.819H98.1357L97.2669 12.1175C92.8868 1.2719 92.923 1.34349 91.2941 1.9162Z" fill="#444444"/>
<path d="M13.7196 6.74841C13.1766 9.18242 12.7422 11.2943 12.7422 11.4375C12.7422 11.5806 13.5024 11.688 14.4435 11.6164L16.1811 11.509L16.7241 8.82448L17.2671 6.13991L17.3757 8.89606L17.4843 11.6164L19.4752 11.7596C20.5974 11.7954 21.5386 11.7954 21.5748 11.688C21.611 11.5806 21.5748 9.96989 21.5024 8.0728L21.3576 4.60076L18.2083 3.49114C16.5069 2.88264 14.9865 2.38152 14.8779 2.38152C14.7693 2.38152 14.2625 4.3502 13.7196 6.74841Z" fill="#444444"/>
<path d="M78.4437 6.3905C77.8645 6.60527 76.8509 6.96321 76.1993 7.21377L75.0771 7.6791L75.5477 9.07507C75.8373 9.82675 76.0545 11.1153 76.0907 11.9028C76.0907 13.263 76.1631 13.4062 77.2129 13.6209C77.8283 13.7283 78.9867 13.8357 79.783 13.8357H81.231L81.0138 11.7596C80.7966 9.93413 79.8192 5.92518 79.602 5.99677C79.5658 5.99677 79.059 6.17574 78.4437 6.3905Z" fill="#444444"/>
<path d="M28.6699 9.71935V12.046H30.4437C31.4211 12.046 32.507 12.1534 32.8328 12.2607C33.3396 12.4755 33.412 12.2249 33.3034 10.6142L33.1948 8.75291L31.3849 8.07282C28.7061 7.07058 28.6699 7.07058 28.6699 9.71935Z" fill="#444444"/>
<path d="M64.0001 11.4373C60.9956 12.5469 60.9594 13.1196 63.8915 13.1196C66.3531 13.1196 66.6788 12.9049 66.6788 11.2941C66.6788 10.4709 66.6426 10.4709 64.0001 11.4373Z" fill="#444444"/>
<path d="M0.651584 14.0862C0.579185 14.4442 0.39819 17.6657 0.253394 21.2809L0 27.7954H1.99095H4.0181L4.19909 25.8983C4.30769 24.8961 4.45249 21.6746 4.56109 18.7395L4.70588 13.4777H2.78733C1.23077 13.4777 0.79638 13.6209 0.651584 14.0862Z" fill="#444444"/>
<path d="M6.29846 14.0862C6.40706 14.4442 7.02244 17.5225 7.67403 20.8871C9.04959 27.7238 8.97719 27.5807 11.5835 26.6858C12.6695 26.3279 12.7057 26.2205 14.0089 20.7082C14.7328 17.6299 15.4206 14.8021 15.5292 14.4442C15.674 13.9431 15.4206 13.8357 13.9003 13.8357H12.1265L11.6559 16.4129L11.1853 19.0258L10.6424 16.5203C10.3528 15.1243 9.95457 13.9073 9.70117 13.7641C9.48398 13.6209 8.579 13.4777 7.71022 13.4777C6.40706 13.4777 6.15366 13.5851 6.29846 14.0862Z" fill="#444444"/>
<path d="M17.4478 16.7707C17.4478 18.4172 17.5564 20.8154 17.6649 22.1398L17.9183 24.5022L20.0541 23.7505L22.1898 22.9988L21.9364 18.6677C21.7916 16.1979 21.5021 14.2651 21.2849 14.1219C21.0677 13.9787 20.1265 13.8355 19.1853 13.8355H17.4478V16.7707Z" fill="#444444"/>
<path d="M28.6699 17.4507C28.6699 19.9205 28.7785 20.6722 29.1405 20.5648C29.3577 20.4575 30.4437 20.0995 31.4935 19.7774L33.3758 19.1331V16.878C33.3758 14.3367 33.1948 14.1935 30.2265 14.1935H28.6699V17.4507Z" fill="#444444"/>
<path d="M61.611 15.4106C61.7195 15.4822 62.9141 15.9833 64.2535 16.4844L66.715 17.415L66.6064 16.4128C66.4978 15.4822 66.4254 15.4464 63.9639 15.339C62.5883 15.2674 61.5386 15.3032 61.611 15.4106Z" fill="#444444"/>
<path d="M76.3441 15.876C76.1993 15.9834 76.0907 16.4487 76.0907 16.8424C76.0545 17.272 75.8373 18.2026 75.5839 18.9185L75.1133 20.2071L77.068 20.9588C78.154 21.3883 79.2038 21.7104 79.3848 21.7104C79.7468 21.7104 80.7965 18.3458 80.7965 17.0214C80.7965 16.1981 80.6155 16.055 79.4572 15.8402C77.6834 15.5539 76.6336 15.5539 76.3441 15.876Z" fill="#444444"/>
<path d="M86.9502 20.1353V24.2517L88.1448 24.7528C88.7963 25.0034 89.7737 25.3613 90.3167 25.4687L91.2941 25.7192V21.066C91.2941 15.84 91.3665 15.9832 88.3258 15.9832H86.9502V20.1353Z" fill="#444444"/>
<path d="M94.5522 16.5918C94.5522 16.914 98.136 25.5762 98.7875 26.829C99.2581 27.7954 99.4029 27.8312 101.539 27.7238L103.783 27.6165L103.892 22.2115L104 16.8066L102.118 16.5918C101.068 16.4487 100.091 16.4487 99.9097 16.5561C99.7287 16.6634 99.6925 17.3435 99.8011 18.0594L99.9821 19.3838L99.4029 17.8446L98.8237 16.3413H96.688C95.5296 16.3413 94.5522 16.4487 94.5522 16.5918Z" fill="#444444"/>
<path d="M62.1178 19.0258C63.8192 25.6835 67.7649 28.8692 72.9776 27.7954C74.5341 27.4732 75.4029 27.0079 76.8147 25.7551C77.792 24.896 78.6246 24.037 78.6246 23.8938C78.6246 23.7506 77.5748 23.3211 76.3079 22.8916C74.3531 22.2831 73.9187 22.2473 73.1585 22.641C71.421 23.6074 70.2988 23.2853 68.4527 21.3524C67.1857 20.028 66.2083 19.3479 64.6518 18.8468C62.0092 17.9162 61.8644 17.952 62.1178 19.0258Z" fill="#444444"/>
<path d="M30.8415 22.2115L28.8506 22.999V25.2898V27.6165H31.0225H33.1945L33.3031 24.4666C33.3393 22.7484 33.2669 21.3525 33.1221 21.3883C32.9773 21.3883 31.9275 21.782 30.8415 22.2115Z" fill="#444444"/>
<path d="M19.6924 26.0413C18.6426 26.4709 17.8462 26.972 17.9186 27.1868C17.991 27.4373 18.9684 27.6521 20.0906 27.7237L22.1539 27.8311V26.5425C22.1539 25.0749 22.1901 25.1107 19.6924 26.0413Z" fill="#444444"/>
<path d="M87.0228 27.1152C87.1314 27.4015 87.6744 27.6521 88.2536 27.7237C89.4482 27.8669 89.1224 27.33 87.7106 26.9004C87.0952 26.7215 86.9142 26.7573 87.0228 27.1152Z" fill="#444444"/>
</svg>
