<svg width="16" height="16" viewBox="0 0 16 16" fill="none" xmlns="http://www.w3.org/2000/svg">
<path fill-rule="evenodd" clip-rule="evenodd" d="M12.538 0.293999C12.1463 -0.0979835 11.5143 -0.0979992 11.1226 0.293949L11.1225 0.293996L0.895972 10.511C0.846225 10.5607 0.813418 10.6249 0.80223 10.6943C0.689385 11.3949 0.575271 12.0969 0.460941 12.7992L0.444618 12.7828L0.438746 12.9355L0.402984 13.1551C0.269542 13.9746 0.136046 14.7945 0.00426074 15.6127C-0.0128493 15.7189 0.0221822 15.8269 0.0983754 15.9028C0.174569 15.9786 0.282599 16.0131 0.388606 15.9954L2.714 15.6074L3.25149 15.5942L3.18603 15.5286L5.28452 15.1784C5.35311 15.1669 5.41642 15.1343 5.46559 15.0851C8.1002 12.4484 9.35141 11.2008 10.6079 9.94805L10.6083 9.94768L10.6097 9.94624L10.61 9.94593L10.6251 9.93096L10.6676 9.88855C11.9131 8.64669 13.1532 7.41031 15.678 4.88347C15.9125 4.69661 16.006 4.42249 15.9997 4.16682C15.9933 3.90722 15.8855 3.64427 15.6929 3.45153L12.538 0.293999ZM1.04239 13.3815L2.60624 14.9479L5.06933 14.5368C5.07636 14.5298 5.08338 14.5228 5.09039 14.5157C5.0531 14.4957 5.01806 14.4699 4.98659 14.4384L1.46615 10.9137C1.4614 10.909 1.45679 10.9042 1.45231 10.8992L1.44396 10.9076C1.31766 11.691 1.18986 12.4759 1.06211 13.2605L1.06176 13.2626L1.06175 13.2626L1.04239 13.3815ZM2.13426 10.2179C2.1389 10.2222 2.14347 10.2266 2.14797 10.2311L5.66841 13.7558C5.69996 13.7874 5.72575 13.8225 5.74578 13.86C7.881 11.7238 9.00762 10.6005 10.1391 9.47242L10.1956 9.41604C11.0871 8.52715 11.9756 7.64133 13.3343 6.28313C13.3043 6.26499 13.2761 6.24297 13.2502 6.21708L9.72977 2.6924C9.71916 2.68178 9.70921 2.67075 9.6999 2.65937L2.13426 10.2179ZM11.5944 0.76662C11.7255 0.63547 11.9351 0.63547 12.0661 0.76662L15.2211 3.92415C15.2898 3.99299 15.3302 4.09154 15.3324 4.18338C15.3346 4.27152 15.3033 4.33005 15.2574 4.3644C15.2445 4.374 15.2324 4.38451 15.2211 4.39586C14.776 4.8413 14.3707 5.24671 13.9983 5.61916C13.9802 5.58897 13.9581 5.56048 13.932 5.53443L10.4116 2.00976C10.4012 1.99938 10.3905 1.98963 10.3794 1.9805L11.5944 0.76662Z" fill="#66625A"/>
</svg>
