<svg width="32" height="40" viewBox="0 0 32 40" fill="none" xmlns="http://www.w3.org/2000/svg">
<path d="M21.2973 0.324275C21.1078 0.117646 20.8404 0 20.5601 0H3C0.73125 0 0 0.8 0 3V37C0 39.2 0.73125 40 3 40H29C31.2687 40 32 39.2 32 37V12.389C32 12.1388 31.9062 11.8977 31.7372 11.7133L21.2973 0.324275ZM2 39.0773C1.44772 39.0773 1 38.6296 1 38.0773V2C1 1.44772 1.44772 1 2 1H19C19.5523 1 20 1.44772 20 2V12C20 12.5523 20.4477 13 21 13H30C30.5523 13 31 13.4477 31 14V38.0773C31 38.6296 30.5523 39.0773 30 39.0773H2Z" fill="#777777"/>
<mask id="path-2-outside-1_2365_2087" maskUnits="userSpaceOnUse" x="10" y="17" width="12" height="12" fill="black">
<rect fill="white" x="10" y="17" width="12" height="12"/>
<path fill-rule="evenodd" clip-rule="evenodd" d="M17 22V18H15V22H11V24H15V28H17V24H21V22H17Z"/>
</mask>
<path fill-rule="evenodd" clip-rule="evenodd" d="M17 22V18H15V22H11V24H15V28H17V24H21V22H17Z" fill="#D9D9D9"/>
<path d="M17 18H18V17H17V18ZM17 22H16V23H17V22ZM15 18V17H14V18H15ZM15 22V23H16V22H15ZM11 22V21H10V22H11ZM11 24H10V25H11V24ZM15 24H16V23H15V24ZM15 28H14V29H15V28ZM17 28V29H18V28H17ZM17 24V23H16V24H17ZM21 24V25H22V24H21ZM21 22H22V21H21V22ZM16 18V22H18V18H16ZM15 19H17V17H15V19ZM16 22V18H14V22H16ZM11 23H15V21H11V23ZM12 24V22H10V24H12ZM15 23H11V25H15V23ZM16 28V24H14V28H16ZM17 27H15V29H17V27ZM16 24V28H18V24H16ZM21 23H17V25H21V23ZM20 22V24H22V22H20ZM17 23H21V21H17V23Z" fill="#777777" mask="url(#path-2-outside-1_2365_2087)"/>
<path d="M21 12V1L31 12H21Z" fill="#D9D9D9"/>
</svg>
