<svg width="32" height="32" viewBox="0 0 32 32" fill="none" xmlns="http://www.w3.org/2000/svg">
<path d="M3 16C3 9.385 9.385 3 16 3C22.615 3 29 9.385 29 16C29 22.615 22.615 29 16 29C9.385 29 3 22.615 3 16ZM0.999997 16C0.999997 24.28 7.72 31 16 31C24.28 31 31 24.28 31 16C31 7.72003 24.28 1 16 0.999999C7.72 0.999999 0.999998 7.72003 0.999997 16Z" fill="#444444"/>
<path d="M10 14.5002L16 14.5002L16 10.0002L22 16.0002L16 22.0002L16 17.5002L10 17.5002L10 14.5002Z" fill="#444444"/>
<path d="M3 16C3 9.385 9.385 3 16 3C22.615 3 29 9.385 29 16C29 22.615 22.615 29 16 29C9.385 29 3 22.615 3 16ZM0.999997 16C0.999997 24.28 7.72 31 16 31C24.28 31 31 24.28 31 16C31 7.72003 24.28 1 16 0.999999C7.72 0.999999 0.999998 7.72003 0.999997 16Z" stroke="#B1A084"/>
<path d="M10 14.5002L16 14.5002L16 10.0002L22 16.0002L16 22.0002L16 17.5002L10 17.5002L10 14.5002Z" stroke="#B1A084"/>
</svg>
