<svg width="20" height="20" viewBox="0 0 20 20" fill="none" xmlns="http://www.w3.org/2000/svg">
<g id="CATALOG1">
<rect width="1920" height="1639" transform="translate(-1493 -116)" fill="#FEFFFF"/>
<g id="Group 143">
<g id="Rectangle 435" filter="url(#filter0_d_0_1)">
<path d="M-937.5 -5C-937.5 -7.48528 -935.485 -9.5 -933 -9.5H49.5V29.5H-937.5V-5Z" stroke="#D9D9D9" shape-rendering="crispEdges"/>
</g>
<path id="Vector" d="M19.5554 17.38L15.4328 13.2575C16.4263 11.8233 16.9233 10.2244 16.9233 8.46179C16.9233 7.31596 16.7009 6.2201 16.256 5.17447C15.8114 4.12866 15.2104 3.22725 14.4532 2.47003C13.6959 1.71281 12.7947 1.11177 11.7491 0.667131C10.7032 0.222363 9.60742 0 8.4616 0C7.31587 0 6.22002 0.222363 5.1744 0.667131C4.12861 1.11177 3.22721 1.71281 2.47 2.47003C1.7127 3.22725 1.11176 4.12883 0.667081 5.17447C0.22236 6.22023 0 7.31596 0 8.46179C0 9.60754 0.22236 10.703 0.667081 11.749C1.11172 12.7946 1.7127 13.6959 2.47 14.4531C3.22721 15.2106 4.12878 15.8113 5.1744 16.2562C6.22015 16.7009 7.31587 16.9232 8.4616 16.9232C10.2246 16.9232 11.8232 16.4262 13.2575 15.4328L17.38 19.5433C17.6685 19.8477 18.0286 20 18.4617 20C18.8783 20 19.2391 19.8477 19.5433 19.5433C19.8477 19.2389 20 18.8783 20 18.4616C20.0001 18.0372 19.8519 17.6765 19.5554 17.38ZM12.2657 12.2655C11.2121 13.3194 9.94411 13.8463 8.4616 13.8463C6.97934 13.8463 5.7114 13.3193 4.65765 12.2655C3.6039 11.2119 3.07705 9.94407 3.07705 8.46154C3.07705 6.97926 3.60403 5.71109 4.65765 4.65754C5.71119 3.60374 6.97934 3.07692 8.4616 3.07692C9.94395 3.07692 11.2119 3.60395 12.2657 4.65754C13.3196 5.71109 13.8464 6.97926 13.8464 8.46154C13.8464 9.94407 13.3194 11.2119 12.2657 12.2655Z" fill="#B1A084"/>
</g>
</g>
<defs>
<filter id="filter0_d_0_1" x="-942" y="-10" width="996" height="48" filterUnits="userSpaceOnUse" color-interpolation-filters="sRGB">
<feFlood flood-opacity="0" result="BackgroundImageFix"/>
<feColorMatrix in="SourceAlpha" type="matrix" values="0 0 0 0 0 0 0 0 0 0 0 0 0 0 0 0 0 0 127 0" result="hardAlpha"/>
<feOffset dy="4"/>
<feGaussianBlur stdDeviation="2"/>
<feComposite in2="hardAlpha" operator="out"/>
<feColorMatrix type="matrix" values="0 0 0 0 0.266667 0 0 0 0 0.266667 0 0 0 0 0.266667 0 0 0 0.15 0"/>
<feBlend mode="normal" in2="BackgroundImageFix" result="effect1_dropShadow_0_1"/>
<feBlend mode="normal" in="SourceGraphic" in2="effect1_dropShadow_0_1" result="shape"/>
</filter>
</defs>
</svg>
