<svg width="40" height="40" viewBox="0 0 40 40" fill="none" xmlns="http://www.w3.org/2000/svg">
<path fill-rule="evenodd" clip-rule="evenodd" d="M20 40C31.0457 40 40 31.0457 40 20C40 8.9543 31.0457 0 20 0C8.9543 0 0 8.9543 0 20C0 31.0457 8.9543 40 20 40ZM29.1522 21.7404C29.7503 22.3067 30.3688 22.8923 30.9131 23.5456C31.2091 23.9006 31.547 24.3318 31.8075 24.8364C32.037 25.2828 32.0415 25.7833 31.8194 26.1756C31.6402 26.4922 31.3358 26.6872 30.9844 26.7104C30.9769 26.7109 30.9693 26.7111 30.9618 26.7111H27.435C26.4901 26.7837 25.6674 26.4495 24.9207 25.6897C24.5795 25.3428 24.2529 24.9771 23.9371 24.6233L23.9266 24.6117C23.7838 24.4516 23.641 24.2917 23.4966 24.1334C23.3395 23.9627 23.1478 23.7672 22.9243 23.6213C22.7997 23.5406 22.6837 23.4975 22.5901 23.4975C22.5415 23.4975 22.3937 23.4975 22.2352 23.7855C21.984 24.2425 21.9281 24.7783 21.9052 25.2892C21.857 26.289 21.4761 26.6607 20.4493 26.7107C20.2404 26.7205 20.0333 26.7254 19.833 26.7254C18.0658 26.7254 16.5486 26.3488 15.1948 25.5743C13.9098 24.8407 12.7921 23.7958 11.6778 22.2862C10.0875 20.1287 8.69206 17.6409 7.15298 14.2193C6.96071 13.7922 6.94963 13.4394 7.12001 13.1708C7.29012 12.9025 7.61341 12.7624 8.08079 12.7541C8.62675 12.7428 9.18586 12.7372 9.78894 12.7372C10.3409 12.7372 10.9196 12.7419 11.5579 12.7516C12.1389 12.7613 12.5921 13.0936 12.8348 13.687C13.4893 15.2991 14.2449 16.7008 15.1452 17.9733C15.4099 18.348 15.6369 18.6513 15.9472 18.8639C16.0784 18.9543 16.1505 18.964 16.1754 18.964C16.2538 18.964 16.3306 18.7964 16.3523 18.7451C16.4456 18.5251 16.5022 18.2676 16.5309 17.9342C16.6335 16.7346 16.6164 15.7433 16.4769 14.8146C16.397 14.2798 16.115 13.9737 15.6146 13.8785C15.5137 13.8596 15.2042 13.8015 15.1088 13.5299C15.0148 13.2623 15.2044 13.0417 15.2955 12.9357C15.6331 12.5393 15.9921 12.2744 16.6438 12.2744H20.6436C20.6658 12.2744 20.688 12.2765 20.7098 12.2809C21.5288 12.4413 21.7456 12.8912 21.8434 13.6139C21.8454 13.6292 21.8465 13.6445 21.8465 13.6599L21.8492 18.1059L21.8491 18.1154C21.8429 18.3447 21.9795 18.8376 22.1831 18.917C22.2013 18.9227 22.2173 18.9255 22.2321 18.9255C22.3282 18.9255 22.4597 18.7842 22.5758 18.6595L22.6174 18.6151C23.6004 17.5715 24.2797 16.3203 24.8146 15.2339C25.0834 14.6884 25.3189 14.1146 25.5333 13.5758C25.7579 13.0119 26.1499 12.7378 26.7315 12.7378L26.7633 12.7381L30.61 12.7408C30.736 12.7408 30.8718 12.744 31.0085 12.7672C31.285 12.814 31.6757 12.9144 31.8771 13.2432C32.0787 13.5724 31.9905 13.966 31.9066 14.2335C31.5833 15.247 30.9761 16.0873 30.3888 16.8999L30.3884 16.9005L30.3253 16.9878C30.0183 17.4121 29.6979 17.835 29.3882 18.244L29.3872 18.2452L29.3871 18.2453C29.0453 18.6965 28.6918 19.163 28.3585 19.6289C27.8766 20.3049 27.8987 20.5285 28.5074 21.1236C28.7183 21.3296 28.9371 21.5367 29.1488 21.7372L29.152 21.7403L29.1522 21.7404Z" fill="#16354D"/>
</svg>
