<svg width="17" height="15" viewBox="0 0 17 15" fill="none" xmlns="http://www.w3.org/2000/svg">
<path d="M8.5 2.36L15.0032 13.3158H1.99682L8.5 2.36ZM10.2197 1.89635C9.44473 0.591124 7.55527 0.591123 6.78029 1.89635L0.793766 11.9789C0.00218785 13.3121 0.962999 15 2.51347 15H14.4865C16.037 15 16.9978 13.3121 16.2062 11.9789L10.2197 1.89635ZM9.36364 11.6316C9.36364 11.1665 8.98661 10.7895 8.52153 10.7895H8.47847C8.01339 10.7895 7.63636 11.1665 7.63636 11.6316C7.63636 12.0967 8.01339 12.4737 8.47847 12.4737H8.52153C8.98661 12.4737 9.36364 12.0967 9.36364 11.6316ZM9.36364 6.60048C9.36364 6.12351 8.97697 5.73684 8.5 5.73684C8.02303 5.73684 7.63636 6.12351 7.63636 6.60048V8.57115C7.63636 9.04812 8.02303 9.43478 8.5 9.43478C8.97697 9.43478 9.36364 9.04812 9.36364 8.57115V6.60048Z" fill="#16354D"/>
</svg>
