<svg width="30" height="30" viewBox="0 0 30 30" fill="none" xmlns="http://www.w3.org/2000/svg">
<path d="M9.72654 20.0001H25.6056C25.9988 20.0001 26.3438 19.7043 26.4502 19.2746L29.966 5.27443C30.0416 4.97261 29.9898 4.6484 29.8235 4.39762C29.6568 4.14762 29.3977 3.99997 29.1212 3.99997H7.6975L7.06923 0.783327C6.97996 0.325258 6.62291 0 6.21092 0H0.878904C0.393218 0 0 0.447392 0 0.999992C0 1.55285 0.393218 1.99998 0.878904 1.99998H5.50551L8.6794 18.2498C7.74557 18.7118 7.08982 19.7694 7.08982 21.0001C7.08982 22.6542 8.27268 24.0001 9.72654 24.0001H25.6056C26.0915 24.0001 26.4845 23.5529 26.4845 23.0001C26.4845 22.4475 26.0915 22.0001 25.6056 22.0001H9.72654C9.24245 22.0001 8.84763 21.5519 8.84763 21.0001C8.84763 20.4483 9.24245 20.0001 9.72654 20.0001Z" fill="#444444"/>
<path d="M8.84769 27C8.84769 28.6544 10.0306 30 11.4846 30C12.9385 30 14.1213 28.6544 14.1213 27C14.1213 25.3459 12.9385 24 11.4846 24C10.0306 24 8.84769 25.3459 8.84769 27Z" fill="#444444"/>
<path d="M21.2111 27C21.2111 28.6544 22.3939 30 23.8478 30C25.3018 30 26.4845 28.6544 26.4845 27C26.4845 25.3459 25.3018 24 23.8478 24C22.3939 24 21.2111 25.3459 21.2111 27Z" fill="#444444"/>
</svg>
