<svg width="24" height="30" viewBox="0 0 24 30" fill="none" xmlns="http://www.w3.org/2000/svg">
<path d="M12 14.672C15.5083 14.672 18.3526 11.3876 18.3526 7.33602C18.3526 3.2844 17.4188 0 12 0C6.58123 0 5.64722 3.2844 5.64722 7.33602C5.64722 11.3876 8.49152 14.672 12 14.672Z" fill="#444444"/>
<path d="M0.00125094 25.873C-0.000915755 25.8034 0.000167595 25.626 0.00125094 25.873Z" fill="#444444"/>
<path d="M23.9982 26.0659C23.9994 25.5967 24.0016 25.9983 23.9982 26.0659Z" fill="#444444"/>
<path d="M23.9848 25.5769C23.8671 18.519 22.8976 16.5079 15.4785 15.2349C15.4785 15.2349 14.4341 16.5001 11.9999 16.5001C9.56575 16.5001 8.52121 15.2349 8.52121 15.2349C1.18304 16.494 0.154557 18.4753 0.019324 25.3476C0.00823497 25.9088 0.00323435 25.9382 0.00125094 25.873C0.00170172 25.9951 0.00210426 26.2209 0.00210426 26.6146C0.00210426 26.6146 1.76842 30 11.9999 30C22.2313 30 23.9978 26.6146 23.9978 26.6146C23.9978 26.3617 23.9979 26.1856 23.9982 26.0659C23.9962 26.1062 23.9923 26.0283 23.9848 25.5769Z" fill="#444444"/>
</svg>
