<svg width="17" height="19" viewBox="0 0 17 19" fill="none" xmlns="http://www.w3.org/2000/svg">
<g clip-path="url(#clip0_1759_2521)">
<path d="M12.6 18.8743H4.37903C3.40028 18.8743 2.5888 18.1089 2.53144 17.1318L1.71224 3.14031C1.70223 2.96825 1.76354 2.79974 1.88159 2.6744C1.99984 2.54906 2.16439 2.47815 2.33686 2.47815H14.642C14.8143 2.47815 14.9788 2.54927 15.0973 2.6744C15.2153 2.79974 15.2766 2.96825 15.2668 3.14031L14.4476 17.132C14.3903 18.1089 13.5788 18.8743 12.6 18.8743ZM3.00007 3.72927L3.78069 17.0586C3.79904 17.3752 4.06203 17.623 4.37903 17.623H12.6C12.917 17.623 13.1796 17.3752 13.1982 17.0588L13.9786 3.72927H3.00007Z" fill="#444444"/>
<path d="M15.934 3.72923H1.04485C0.699278 3.72923 0.419189 3.44914 0.419189 3.10357C0.419189 2.75799 0.699278 2.47791 1.04485 2.47791H15.9342C16.2798 2.47791 16.5599 2.75799 16.5599 3.10357C16.5599 3.44914 16.2798 3.72923 15.934 3.72923Z" fill="#444444"/>
<path d="M11.3526 3.72926H5.62615C5.28058 3.72926 5.00049 3.44917 5.00049 3.10359V1.93736C5.00049 0.926701 5.82282 0.10437 6.83368 0.10437H10.1453C11.1562 0.10437 11.9783 0.926701 11.9783 1.93736V3.10359C11.9783 3.44917 11.6982 3.72926 11.3526 3.72926ZM6.25182 2.47793H10.7268V1.93736C10.727 1.6166 10.4661 1.3557 10.1451 1.3557H6.83368C6.51293 1.3557 6.25202 1.6166 6.25202 1.93736L6.25182 2.47793Z" fill="#444444"/>
<path d="M11.2695 15.7441C11.257 15.7441 11.2449 15.7437 11.2321 15.743C10.8874 15.7228 10.624 15.4267 10.6442 15.0817L11.1602 6.27152C11.1804 5.92636 11.4747 5.65983 11.8215 5.6836C12.1663 5.70383 12.4297 5.99977 12.4094 6.34472L11.8935 15.1551C11.8741 15.4876 11.5981 15.7441 11.2695 15.7441Z" fill="#444444"/>
<path d="M5.7092 15.7441C5.38031 15.7441 5.10481 15.4876 5.08521 15.1552L4.56945 6.34477C4.54922 5.99982 4.81242 5.70388 5.15737 5.68365C5.50065 5.6605 5.79826 5.92662 5.81849 6.27157L6.33424 15.0818C6.35447 15.4267 6.09128 15.7229 5.74633 15.7431C5.73402 15.7437 5.72172 15.7441 5.7092 15.7441Z" fill="#444444"/>
<path d="M8.48943 15.7441C8.14386 15.7441 7.86377 15.464 7.86377 15.1184V6.30822C7.86377 5.96265 8.14386 5.68256 8.48943 5.68256C8.83501 5.68256 9.1151 5.96265 9.1151 6.30822V15.1184C9.1151 15.464 8.83501 15.7441 8.48943 15.7441Z" fill="#444444"/>
</g>
<defs>
<clipPath id="clip0_1759_2521">
<rect width="17" height="19" fill="white"/>
</clipPath>
</defs>
</svg>
