<svg width="19" height="27" viewBox="0 0 19 27" fill="none" xmlns="http://www.w3.org/2000/svg">
<path d="M5.42857 25.65C5.42857 26.3925 6.03929 27 6.78571 27H12.2143C12.9607 27 13.5714 26.3925 13.5714 25.65V24.3H5.42857V25.65ZM9.5 0C4.26143 0 0 4.239 0 9.45C0 12.663 1.615 15.4845 4.07143 17.199V20.25C4.07143 20.9925 4.68214 21.6 5.42857 21.6H13.5714C14.3179 21.6 14.9286 20.9925 14.9286 20.25V17.199C17.385 15.4845 19 12.663 19 9.45C19 4.239 14.7386 0 9.5 0ZM13.3679 14.985L12.2143 15.795V18.9H6.78571V15.795L5.63214 14.985C3.8 13.716 2.71429 11.6505 2.71429 9.45C2.71429 5.724 5.75429 2.7 9.5 2.7C13.2457 2.7 16.2857 5.724 16.2857 9.45C16.2857 11.6505 15.2 13.716 13.3679 14.985Z" fill="#16354D"/>
</svg>
